<?xml version="1.0" encoding="UTF-8" standalone="no"?>
<svg
   xmlns:dc="http://purl.org/dc/elements/1.1/"
   xmlns:cc="http://creativecommons.org/ns#"
   xmlns:rdf="http://www.w3.org/1999/02/22-rdf-syntax-ns#"
   xmlns:svg="http://www.w3.org/2000/svg"
   xmlns="http://www.w3.org/2000/svg"
   xmlns:sodipodi="http://sodipodi.sourceforge.net/DTD/sodipodi-0.dtd"
   xmlns:inkscape="http://www.inkscape.org/namespaces/inkscape"
   version="1.0"
   width="5000.000000pt"
   height="5000.000000pt"
   viewBox="0 0 5000.000000 5000.000000"
   preserveAspectRatio="xMidYMid meet"
   id="svg8"
   sodipodi:docname="safari-pinned-tab.svg"
   inkscape:version="0.92.4 5da689c313, 2019-01-14">
  <defs
     id="defs12" />
  <sodipodi:namedview
     pagecolor="#ffffff"
     bordercolor="#666666"
     borderopacity="1"
     objecttolerance="10"
     gridtolerance="10"
     guidetolerance="10"
     inkscape:pageopacity="0"
     inkscape:pageshadow="2"
     inkscape:window-width="1366"
     inkscape:window-height="739"
     id="namedview10"
     showgrid="false"
     inkscape:zoom="0.0354"
     inkscape:cx="-1864.4068"
     inkscape:cy="3333.3333"
     inkscape:window-x="0"
     inkscape:window-y="0"
     inkscape:window-maximized="1"
     inkscape:current-layer="svg8" />
  <metadata
     id="metadata2">
Created by potrace 1.11, written by Peter Selinger 2001-2013
<rdf:RDF>
  <cc:Work
     rdf:about="">
    <dc:format>image/svg+xml</dc:format>
    <dc:type
       rdf:resource="http://purl.org/dc/dcmitype/StillImage" />
  </cc:Work>
</rdf:RDF>
</metadata>
  <g
     transform="matrix(-0.1,0,0,-0.1,5050.5403,5000)"
     id="g6"
     style="fill:#000000;stroke:none">
    <path
       d="m 19647,45804 c -1,-2 -21,-5 -44,-7 -23,-3 -47,-9 -54,-13 -8,-5 -9,-3 -4,5 6,10 3,11 -14,1 -12,-6 -31,-13 -42,-16 -10,-2 -27,-6 -36,-9 -59,-16 -93,-22 -93,-18 0,2 -15,-6 -32,-19 -18,-13 -33,-21 -33,-18 0,2 -21,-10 -47,-28 -27,-18 -48,-30 -48,-26 0,3 -16,-6 -35,-20 -19,-15 -35,-24 -35,-21 0,10 -77,-52 -154,-125 -63,-60 -156,-170 -156,-185 0,-4 -10,-21 -22,-38 -147,-207 -201,-529 -135,-818 23,-105 31,-131 58,-194 5,-11 16,-58 24,-105 9,-47 20,-94 25,-105 5,-11 11,-32 14,-47 14,-66 20,-84 31,-93 7,-5 16,-30 19,-55 11,-78 23,-133 41,-195 9,-33 19,-71 22,-85 4,-14 10,-28 15,-31 5,-3 11,-16 13,-30 30,-156 51,-249 67,-288 6,-14 14,-35 18,-46 8,-20 23,-90 35,-155 4,-19 10,-48 15,-65 5,-16 14,-50 21,-75 7,-25 18,-52 24,-60 7,-8 18,-49 25,-90 7,-41 22,-106 32,-145 11,-38 22,-81 25,-95 3,-14 9,-27 13,-30 6,-5 22,-73 52,-215 9,-44 18,-72 48,-150 16,-41 30,-103 30,-131 0,-16 6,-49 14,-74 8,-25 20,-65 27,-90 7,-25 18,-56 25,-70 7,-14 17,-52 24,-85 6,-33 20,-94 31,-135 12,-41 23,-86 26,-100 3,-14 9,-27 13,-30 6,-5 24,-79 52,-215 5,-27 16,-65 24,-83 8,-18 14,-42 14,-52 0,-11 3,-20 8,-20 9,0 32,-94 32,-130 0,-14 6,-45 14,-70 8,-25 20,-65 27,-90 7,-25 17,-54 24,-65 6,-11 17,-51 23,-90 16,-89 37,-169 72,-270 15,-44 31,-101 35,-125 11,-75 54,-231 64,-240 10,-8 31,-97 31,-128 0,-15 7,-49 16,-77 28,-87 34,-111 34,-127 0,-9 6,-23 13,-30 7,-7 19,-47 26,-88 7,-41 17,-90 23,-108 5,-18 11,-43 13,-55 2,-12 15,-52 29,-90 14,-37 34,-113 46,-170 22,-112 50,-207 61,-207 6,0 14,-32 29,-125 5,-27 16,-77 25,-110 9,-33 20,-75 25,-94 5,-19 13,-37 17,-40 5,-3 17,-46 26,-96 27,-146 43,-205 67,-255 8,-16 30,-107 50,-205 7,-33 26,-96 42,-139 16,-44 33,-105 38,-135 14,-84 34,-169 43,-177 4,-4 7,-17 7,-28 0,-12 6,-30 13,-41 17,-26 37,-95 37,-129 0,-30 17,-105 35,-156 31,-85 55,-170 66,-225 19,-105 26,-129 53,-200 15,-38 31,-95 36,-125 14,-85 35,-169 59,-235 27,-73 36,-109 52,-200 7,-38 18,-83 24,-100 20,-47 53,-157 60,-195 15,-91 49,-217 76,-282 10,-26 19,-61 19,-79 0,-17 7,-52 15,-78 8,-25 21,-73 30,-106 9,-33 23,-74 31,-90 8,-17 19,-58 24,-90 14,-97 21,-128 35,-165 7,-19 19,-56 26,-82 8,-27 16,-48 20,-48 3,0 9,-24 13,-52 4,-29 12,-71 17,-93 28,-108 42,-154 60,-197 10,-26 19,-61 19,-78 0,-17 7,-55 16,-83 8,-29 20,-70 25,-92 6,-22 20,-65 32,-95 12,-30 25,-80 29,-110 9,-64 22,-123 36,-165 6,-16 16,-49 23,-72 7,-24 16,-43 20,-43 4,0 10,-19 13,-42 14,-95 30,-174 37,-183 4,-5 10,-25 14,-44 4,-18 16,-52 26,-75 10,-22 19,-56 19,-75 0,-19 4,-48 10,-65 5,-17 17,-58 25,-91 9,-33 26,-85 38,-115 12,-30 25,-80 29,-110 9,-64 22,-123 36,-165 6,-16 16,-49 23,-72 7,-24 16,-43 20,-43 4,0 11,-21 14,-47 15,-113 69,-314 87,-321 4,-2 8,-18 8,-35 1,-18 10,-68 21,-112 11,-44 24,-96 28,-115 4,-19 16,-50 26,-69 9,-19 21,-62 26,-95 14,-100 48,-227 74,-279 9,-18 18,-50 21,-72 10,-93 70,-305 86,-305 4,0 8,-13 8,-28 0,-25 22,-129 48,-232 5,-19 18,-53 29,-75 11,-22 23,-62 27,-90 15,-112 41,-216 71,-279 10,-21 18,-46 18,-55 -1,-21 26,-149 38,-179 5,-13 9,-32 9,-42 0,-11 11,-43 24,-72 13,-29 31,-93 40,-143 10,-49 21,-103 26,-120 5,-16 14,-50 21,-75 7,-25 18,-49 24,-55 7,-5 15,-32 19,-60 3,-27 9,-70 13,-95 3,-25 9,-49 13,-55 4,-5 11,-26 15,-45 4,-19 15,-53 25,-75 10,-22 21,-56 24,-75 3,-19 12,-66 21,-105 9,-38 20,-86 24,-105 4,-19 17,-55 28,-80 11,-25 28,-85 37,-135 9,-49 21,-103 26,-120 5,-16 14,-50 21,-75 7,-25 18,-54 25,-65 6,-11 17,-54 23,-95 13,-78 37,-172 52,-202 5,-10 9,-25 9,-33 0,-8 4,-15 9,-15 4,0 11,-19 14,-42 3,-24 13,-74 22,-113 9,-38 20,-86 24,-105 5,-19 17,-55 28,-80 10,-25 25,-76 32,-115 11,-64 23,-110 54,-220 6,-22 16,-49 23,-60 6,-11 17,-56 24,-100 7,-44 18,-98 25,-120 7,-22 18,-58 24,-80 7,-22 16,-49 21,-60 5,-11 18,-63 29,-115 27,-128 35,-158 56,-205 9,-22 28,-89 41,-150 14,-60 29,-126 34,-145 5,-19 12,-48 16,-65 4,-16 11,-33 17,-36 5,-4 17,-49 27,-100 21,-112 45,-203 70,-264 4,-11 15,-56 24,-100 9,-44 21,-94 26,-111 6,-17 10,-38 10,-47 0,-9 7,-33 16,-54 9,-21 20,-47 25,-58 5,-11 15,-55 24,-97 8,-42 22,-103 31,-135 9,-32 19,-69 22,-83 3,-13 10,-30 17,-36 6,-6 17,-48 24,-93 l 14,-82 -34,-35 c -18,-18 -35,-31 -38,-29 -7,7 -201,-187 -201,-200 0,-14 -55,-67 -61,-60 -6,5 -186,-180 -233,-239 -16,-20 -31,-34 -34,-31 -8,7 -202,-186 -202,-200 0,-14 -55,-67 -61,-60 -6,5 -186,-180 -233,-239 -16,-20 -31,-34 -34,-31 -8,7 -202,-186 -202,-200 0,-14 -55,-67 -61,-60 -6,5 -186,-180 -233,-239 -16,-20 -31,-34 -34,-31 -8,7 -202,-186 -202,-200 0,-14 -55,-67 -61,-60 -6,5 -186,-180 -233,-239 -16,-20 -31,-34 -34,-31 -8,7 -202,-186 -202,-200 0,-14 -55,-67 -61,-60 -6,5 -186,-180 -232,-239 -16,-20 -32,-34 -36,-31 -8,5 -190,-180 -229,-234 -13,-17 -27,-29 -31,-26 -8,4 -183,-173 -234,-239 -16,-20 -32,-34 -36,-31 -8,5 -190,-180 -229,-234 -13,-17 -27,-29 -31,-26 -8,4 -183,-173 -234,-239 -16,-20 -32,-34 -36,-31 -8,5 -190,-180 -229,-234 -13,-17 -27,-29 -31,-26 -8,4 -183,-173 -234,-239 -16,-20 -32,-34 -36,-31 -8,5 -190,-180 -229,-234 -13,-17 -27,-29 -31,-26 -8,4 -183,-173 -234,-239 -16,-20 -32,-34 -36,-31 -8,5 -190,-180 -229,-234 -13,-17 -27,-29 -31,-26 -8,4 -183,-173 -234,-239 -16,-20 -32,-34 -36,-31 -8,5 -190,-180 -229,-234 -13,-17 -27,-29 -31,-26 -8,4 -183,-173 -234,-239 -16,-20 -32,-34 -36,-31 -8,5 -190,-180 -229,-234 -13,-17 -27,-29 -31,-26 -8,4 -183,-173 -234,-239 -16,-20 -32,-34 -36,-31 -8,5 -190,-180 -229,-234 -13,-17 -29,-31 -35,-31 -15,0 -207,-191 -207,-206 0,-13 -55,-66 -61,-59 -6,5 -191,-185 -227,-234 -13,-17 -29,-31 -35,-31 -15,0 -207,-191 -207,-206 0,-13 -55,-66 -61,-59 -6,5 -191,-185 -227,-234 -13,-17 -29,-31 -35,-31 -15,0 -207,-191 -207,-206 0,-13 -55,-66 -61,-59 -6,5 -191,-185 -227,-234 -13,-17 -29,-31 -35,-31 -15,0 -207,-191 -207,-206 0,-13 -55,-66 -61,-59 -6,5 -191,-185 -227,-234 -13,-17 -29,-31 -35,-31 -15,0 -207,-191 -207,-206 0,-13 -53,-64 -66,-64 -13,0 -204,-193 -204,-206 0,-13 -43,-54 -56,-54 -13,0 -204,-193 -204,-206 0,-13 -53,-64 -66,-64 -13,0 -204,-193 -204,-206 0,-13 -43,-54 -56,-54 -13,0 -204,-193 -204,-206 0,-13 -53,-64 -66,-64 -13,0 -204,-193 -204,-206 0,-13 -43,-54 -56,-54 -13,0 -204,-193 -204,-206 0,-13 -53,-64 -66,-64 -13,0 -204,-193 -204,-206 0,-13 -43,-54 -56,-54 -13,0 -204,-193 -204,-206 0,-13 -53,-64 -66,-64 -13,0 -204,-193 -204,-206 0,-13 -43,-54 -56,-54 -13,0 -204,-193 -204,-206 0,-13 -53,-64 -66,-64 -13,0 -204,-193 -204,-206 0,-13 -43,-54 -56,-54 -13,0 -204,-193 -204,-206 0,-12 -52,-64 -65,-64 -5,0 -24,-14 -42,-32 l -33,-32 v 27 c 0,14 -5,39 -11,54 -23,58 -27,70 -43,143 -9,41 -16,89 -16,107 0,17 -6,38 -13,45 -7,7 -13,15 -13,18 2,14 -28,90 -36,90 -4,0 -8,12 -8,26 0,44 -32,196 -51,248 -11,27 -19,57 -19,67 0,9 -5,19 -12,21 -6,2 -19,47 -29,99 -9,52 -24,121 -34,154 -9,33 -19,71 -22,85 -4,14 -9,27 -13,30 -7,6 -29,108 -39,188 -4,30 -11,57 -17,60 -5,4 -11,16 -12,27 -2,10 -12,37 -22,60 -16,38 -33,112 -46,205 -4,24 -15,63 -25,88 -11,24 -19,52 -19,62 0,10 -6,20 -13,23 -7,2 -18,41 -25,88 -8,46 -23,116 -34,154 -11,39 -22,81 -25,95 -3,14 -9,27 -14,30 -9,6 -39,149 -39,189 0,25 -13,64 -61,176 -4,11 -15,65 -24,120 -14,91 -35,160 -71,240 -7,17 -21,70 -30,120 -9,49 -25,114 -35,145 -10,30 -19,63 -19,73 0,9 -3,17 -8,17 -10,0 -32,96 -39,169 -3,31 -17,80 -29,110 -13,29 -24,62 -24,72 0,11 -4,19 -9,19 -9,0 -14,23 -30,143 -8,61 -30,133 -66,212 -7,17 -19,62 -25,100 -7,39 -18,90 -25,115 -28,101 -39,135 -45,145 -11,17 -30,97 -39,165 -8,59 -47,187 -62,200 -3,3 -11,39 -18,80 -7,41 -20,98 -28,125 -8,28 -19,64 -24,81 -5,17 -9,36 -9,44 0,7 -6,21 -13,29 -8,9 -20,50 -27,91 -6,41 -16,89 -21,106 -5,17 -11,40 -13,50 -2,10 -17,60 -34,109 -17,50 -37,131 -47,180 -9,50 -20,97 -24,105 -5,9 -12,30 -16,48 -3,18 -10,32 -14,32 -4,0 -13,35 -20,78 -8,42 -22,109 -33,147 -11,39 -23,85 -28,104 -5,19 -13,37 -17,40 -5,3 -17,47 -26,96 -25,134 -33,164 -61,238 -14,37 -34,113 -46,170 -20,100 -46,192 -60,212 -4,6 -13,42 -20,80 -13,74 -36,165 -51,203 -5,13 -9,31 -9,42 0,10 -6,25 -13,32 -7,7 -21,54 -30,103 -28,147 -43,205 -67,255 -8,16 -30,107 -50,205 -7,33 -23,89 -35,125 -13,36 -28,90 -35,120 -6,30 -16,73 -21,95 -6,22 -13,55 -16,73 -3,18 -9,35 -14,38 -5,3 -9,15 -9,27 0,13 -6,31 -13,42 -8,11 -19,49 -26,85 -20,111 -33,161 -67,265 -18,55 -38,127 -45,160 -20,108 -47,206 -73,267 -9,21 -16,52 -16,70 0,18 -6,53 -14,78 -8,25 -22,72 -31,105 -9,33 -21,68 -26,78 -6,10 -21,71 -34,135 -23,118 -36,162 -61,217 -8,17 -21,66 -30,110 -29,144 -50,223 -78,287 -9,21 -16,52 -16,71 0,18 -6,53 -14,78 -7,24 -19,64 -26,89 -6,25 -20,68 -30,95 -11,28 -24,77 -30,110 -17,102 -50,229 -63,241 -4,4 -7,16 -7,26 0,10 -4,18 -9,18 -5,0 -11,24 -15,53 -4,28 -12,70 -17,92 -28,108 -42,154 -60,197 -10,26 -19,61 -19,77 0,17 -9,64 -21,104 -11,39 -24,88 -28,107 -4,19 -15,49 -23,65 -8,17 -19,53 -22,80 -11,74 -44,199 -77,290 -10,28 -26,88 -35,135 -17,86 -39,163 -68,232 -9,21 -16,51 -16,68 0,17 -9,63 -21,103 -11,39 -24,88 -28,107 -4,19 -16,50 -26,69 -16,32 -23,67 -44,220 -4,30 -13,57 -19,59 -7,2 -12,12 -12,23 0,11 -9,38 -20,62 -10,23 -24,69 -30,102 -16,96 -46,217 -59,243 -21,41 -30,70 -35,107 -4,36 -12,71 -44,195 -5,19 -17,50 -27,69 -16,32 -23,67 -44,220 -4,30 -13,57 -19,59 -7,2 -12,12 -12,23 0,11 -8,38 -19,62 -10,23 -24,71 -31,107 -6,36 -16,82 -21,103 -5,20 -13,54 -18,75 -4,20 -18,59 -30,85 -11,27 -21,61 -21,75 0,15 -7,52 -15,82 -8,30 -15,67 -15,83 0,15 -4,27 -10,27 -5,0 -10,9 -10,19 0,11 -9,36 -21,55 -19,33 -26,65 -48,224 -4,28 -12,57 -19,64 -7,7 -12,18 -12,25 0,8 -9,33 -20,55 -11,23 -20,53 -20,67 0,23 -20,110 -40,177 -6,17 -10,37 -10,46 0,8 -10,37 -22,64 -12,27 -25,72 -29,99 -14,100 -33,185 -41,185 -4,0 -8,8 -8,18 0,19 -20,76 -36,107 -6,11 -14,43 -18,70 -16,120 -23,154 -33,167 -5,7 -16,34 -24,61 -7,26 -17,47 -21,47 -4,0 -8,14 -8,32 0,29 -18,111 -40,184 -6,17 -10,38 -10,47 0,9 -11,40 -24,69 -13,29 -29,89 -36,133 -7,44 -14,94 -17,110 -3,17 -9,32 -14,33 -5,2 -9,11 -9,20 0,20 -21,80 -35,102 -9,14 -14,42 -34,189 -4,30 -13,57 -19,59 -7,2 -12,11 -12,20 0,23 -23,82 -32,82 -4,0 -8,11 -8,24 0,14 -7,31 -15,40 -8,8 -15,17 -15,19 0,9 -70,122 -92,150 -55,67 -207,215 -253,245 -27,17 -59,39 -70,47 -10,8 -24,15 -30,15 -6,0 -26,11 -43,24 -18,13 -54,31 -80,40 -26,10 -56,22 -66,28 -11,5 -33,12 -50,14 -17,2 -42,6 -56,9 -14,2 -38,6 -55,9 -16,2 -48,7 -70,11 -47,7 -162,7 -225,0 -25,-3 -61,-7 -81,-9 -19,-2 -44,-8 -55,-14 -10,-5 -32,-12 -49,-15 -55,-10 -73,-15 -94,-27 -12,-6 -21,-8 -21,-4 0,3 -16,-6 -35,-20 -19,-15 -35,-24 -35,-21 0,3 -20,-8 -44,-25 -25,-16 -48,-30 -51,-30 -4,0 -21,-10 -38,-22 -18,-13 -36,-23 -40,-23 -15,0 -212,-192 -227,-221 -8,-16 -26,-45 -40,-64 -48,-67 -130,-225 -130,-251 0,-10 -4,-20 -8,-23 -5,-3 -14,-38 -21,-78 -7,-40 -19,-107 -27,-149 -19,-112 -2,-273 47,-435 5,-17 9,-37 9,-45 0,-8 9,-31 20,-51 11,-20 24,-68 29,-105 11,-79 52,-225 74,-267 9,-16 19,-55 22,-85 4,-31 11,-69 15,-86 5,-16 16,-57 25,-90 9,-33 25,-80 35,-105 10,-25 21,-67 25,-95 4,-27 11,-63 15,-80 5,-16 14,-50 20,-75 7,-25 21,-70 32,-100 11,-30 24,-80 28,-110 12,-74 53,-224 66,-241 15,-19 34,-100 34,-143 0,-19 5,-38 10,-41 6,-3 10,-19 10,-36 0,-16 4,-37 9,-47 16,-30 53,-146 63,-197 5,-27 14,-66 19,-85 4,-19 15,-62 23,-95 7,-33 23,-82 35,-108 12,-27 21,-62 21,-78 0,-37 45,-204 76,-286 13,-34 24,-76 24,-94 0,-18 4,-46 9,-63 6,-17 22,-71 37,-121 15,-49 31,-95 36,-101 4,-6 12,-37 17,-70 17,-107 41,-202 66,-259 14,-30 25,-68 25,-83 0,-15 9,-61 20,-102 11,-41 22,-86 26,-100 3,-14 17,-53 30,-87 13,-34 24,-76 24,-94 0,-18 4,-46 9,-63 5,-17 17,-58 27,-91 17,-62 23,-80 43,-129 6,-16 14,-49 17,-75 2,-25 8,-57 13,-71 5,-14 14,-50 21,-80 7,-30 23,-78 36,-107 13,-28 24,-64 24,-80 0,-39 46,-216 75,-290 14,-34 25,-76 25,-94 0,-18 4,-46 9,-63 5,-17 17,-58 26,-91 10,-33 26,-82 36,-109 11,-27 19,-61 19,-77 0,-16 6,-48 14,-71 7,-24 19,-70 26,-103 7,-33 20,-73 28,-90 8,-16 19,-38 23,-47 5,-10 9,-30 9,-46 0,-38 46,-215 72,-277 11,-27 24,-75 29,-105 13,-90 28,-151 55,-225 15,-38 30,-94 35,-124 4,-29 12,-65 17,-80 6,-14 16,-53 23,-86 7,-33 23,-84 36,-113 13,-29 23,-62 23,-74 0,-32 50,-228 66,-260 8,-16 12,-28 9,-28 -4,0 1,-10 9,-22 9,-12 16,-34 16,-48 0,-43 30,-172 57,-245 14,-38 29,-94 34,-124 4,-29 12,-65 17,-80 6,-14 16,-53 23,-86 7,-33 23,-84 36,-113 13,-29 23,-65 23,-80 0,-15 5,-45 11,-67 7,-22 12,-47 13,-55 1,-8 7,-33 14,-55 7,-22 18,-58 23,-80 6,-22 17,-51 24,-65 6,-14 18,-61 25,-105 7,-44 27,-116 43,-160 16,-44 33,-104 38,-134 4,-29 12,-65 17,-80 6,-14 13,-42 16,-61 10,-58 49,-180 58,-180 4,0 8,-12 8,-28 0,-31 22,-131 46,-212 9,-30 19,-68 22,-85 3,-16 10,-34 17,-40 6,-5 17,-46 24,-90 11,-72 50,-219 70,-270 5,-11 13,-42 19,-70 9,-46 32,-135 62,-243 7,-23 16,-42 21,-42 5,0 9,-12 9,-28 0,-31 22,-131 46,-212 9,-30 19,-68 22,-85 3,-16 10,-34 17,-40 6,-5 18,-48 25,-95 7,-47 24,-119 36,-160 13,-41 24,-83 24,-92 0,-10 4,-18 9,-18 4,0 16,-37 25,-83 29,-141 39,-182 48,-191 4,-6 8,-19 8,-29 0,-10 6,-31 14,-45 8,-15 21,-63 29,-107 9,-44 23,-105 32,-135 9,-30 19,-68 22,-85 3,-16 11,-37 18,-45 6,-8 17,-49 24,-90 7,-41 23,-112 37,-156 13,-45 24,-89 24,-98 0,-9 4,-16 8,-16 4,0 16,-37 25,-82 33,-153 63,-263 77,-283 10,-13 20,-58 30,-125 10,-64 45,-192 65,-235 8,-16 22,-70 31,-119 9,-49 25,-114 35,-144 11,-30 19,-63 19,-74 0,-10 4,-18 8,-18 4,0 16,-37 25,-82 32,-146 68,-281 77,-288 6,-5 25,-85 34,-145 7,-50 45,-178 61,-206 8,-14 21,-64 29,-110 23,-131 28,-153 36,-164 4,-5 11,-26 15,-45 4,-19 11,-39 15,-45 4,-5 15,-44 25,-85 32,-145 67,-275 74,-280 7,-5 25,-79 35,-145 9,-54 51,-202 62,-216 6,-8 16,-43 23,-79 22,-121 34,-175 42,-185 3,-5 10,-26 14,-45 4,-19 11,-40 16,-46 5,-6 18,-56 29,-110 28,-135 61,-254 69,-254 5,0 13,-33 20,-72 13,-77 24,-124 47,-197 8,-25 14,-52 14,-62 0,-10 6,-24 13,-31 8,-7 20,-45 26,-83 7,-39 22,-104 33,-145 11,-41 22,-87 25,-102 3,-16 9,-28 12,-28 4,0 16,-37 25,-82 28,-133 56,-239 70,-272 23,-51 28,-69 36,-126 11,-71 57,-242 69,-249 4,-3 13,-37 20,-76 20,-116 36,-179 81,-310 10,-27 20,-68 24,-90 14,-83 50,-221 62,-235 7,-8 18,-44 24,-80 6,-36 15,-78 20,-95 5,-16 11,-46 15,-65 7,-40 13,-58 49,-152 14,-36 26,-81 26,-99 0,-18 4,-46 9,-63 5,-17 17,-58 26,-91 10,-33 26,-82 35,-110 10,-27 21,-70 25,-95 11,-67 53,-231 63,-244 13,-17 32,-89 32,-120 0,-15 7,-51 16,-79 43,-147 54,-186 58,-227 16,-158 63,-304 138,-428 21,-34 38,-67 38,-72 0,-6 3,-10 8,-10 4,0 16,-16 27,-36 23,-44 207,-230 236,-239 10,-4 19,-10 19,-14 0,-5 14,-15 32,-22 18,-7 40,-21 50,-31 10,-10 25,-18 33,-18 7,0 18,-6 22,-13 9,-16 175,-86 219,-93 30,-5 61,-11 104,-19 100,-18 178,-21 290,-10 99,9 111,11 160,25 57,17 60,18 89,24 13,3 34,12 47,21 13,8 24,13 24,10 0,-4 14,3 30,15 17,12 30,18 30,15 0,-4 23,10 50,30 28,20 50,34 50,30 0,-4 18,8 40,25 22,17 40,28 40,24 0,-5 50,41 110,101 61,60 110,115 110,121 0,6 11,21 25,34 14,13 25,19 25,14 0,-5 47,38 105,96 58,58 105,110 105,116 0,6 11,21 25,34 14,13 25,19 25,14 0,-5 50,41 110,101 61,60 110,115 110,121 0,6 11,21 25,34 14,13 25,19 25,14 0,-5 47,38 105,96 58,58 105,110 105,116 0,6 11,21 25,34 14,13 25,19 25,14 0,-5 50,41 110,101 61,60 110,115 110,121 0,6 11,21 25,34 14,13 25,19 25,14 0,-5 47,38 105,96 58,58 105,110 105,116 0,6 11,21 25,34 14,13 25,19 25,14 0,-5 50,41 110,101 61,60 110,115 110,121 0,6 11,21 25,34 14,13 25,19 25,14 0,-5 47,38 105,96 58,58 105,110 105,116 0,6 11,21 25,34 14,13 25,19 25,14 0,-5 50,41 110,101 61,60 110,115 110,121 0,6 11,21 25,34 14,13 25,19 25,14 0,-5 47,38 105,96 58,58 105,110 105,116 0,6 11,21 25,34 14,13 25,19 25,14 0,-5 50,41 110,101 61,60 110,115 110,121 0,6 11,21 25,34 14,13 25,19 25,14 0,-5 47,38 105,96 58,58 105,110 105,116 0,6 11,21 25,34 14,13 25,19 25,14 0,-5 50,41 110,101 61,60 110,115 110,121 0,6 11,21 25,34 14,13 25,19 25,14 0,-5 47,38 105,96 58,58 105,110 105,116 0,6 11,21 25,34 14,13 25,19 25,14 0,-5 50,41 110,101 61,60 110,115 110,121 0,6 11,21 25,34 14,13 25,19 25,14 0,-5 47,38 105,96 58,58 105,110 105,116 0,6 11,21 25,34 14,13 25,19 25,14 0,-5 50,41 110,101 61,60 110,115 110,121 0,6 11,21 25,34 14,13 25,19 25,14 0,-5 47,38 105,96 58,58 105,110 105,116 0,6 11,21 25,34 14,13 25,19 25,14 0,-5 50,41 110,101 61,60 110,115 110,121 0,6 11,21 25,34 14,13 25,19 25,14 0,-5 47,38 105,96 58,58 105,110 105,116 0,6 11,21 25,34 14,13 25,19 25,14 0,-5 50,41 110,101 61,60 110,115 110,121 0,6 11,21 25,34 14,13 25,19 25,14 0,-5 47,38 105,96 58,58 105,110 105,116 0,6 11,21 25,34 14,13 25,19 25,14 0,-5 50,41 110,101 61,60 110,115 110,121 0,6 11,21 25,34 14,13 25,19 25,14 0,-5 47,38 105,96 58,58 105,110 105,116 0,6 11,21 25,34 14,13 25,19 25,14 0,-5 50,41 110,101 61,60 110,115 110,121 0,6 11,21 25,34 14,13 25,19 25,14 0,-5 47,38 105,96 58,58 105,110 105,116 0,13 42,54 56,54 13,0 214,203 214,216 0,6 11,21 25,34 14,13 25,19 25,14 0,-5 47,38 105,96 58,58 105,110 105,116 0,13 42,54 56,54 13,0 214,203 214,216 0,6 11,21 25,34 14,13 25,19 25,14 0,-5 47,38 105,96 58,58 105,110 105,115 0,6 14,24 30,40 17,16 30,25 30,20 0,-6 47,37 105,95 58,58 105,110 105,116 0,6 11,21 25,34 14,13 25,19 25,14 0,-5 47,38 105,96 58,58 105,110 105,115 0,6 14,24 30,40 17,16 30,25 30,20 0,-6 47,37 105,95 58,58 105,110 105,116 0,6 11,21 25,34 14,13 25,19 25,14 0,-5 47,38 105,96 58,58 105,110 105,115 0,6 14,24 30,40 17,16 30,25 30,20 0,-6 47,37 105,95 58,58 105,110 105,116 0,13 42,54 56,54 11,0 196,190 233,239 13,18 26,29 29,26 8,-7 212,196 212,211 0,13 42,54 56,54 11,0 196,190 233,239 13,18 26,29 29,26 8,-7 212,196 212,210 0,6 14,24 30,40 17,16 30,25 30,20 0,-6 47,37 105,95 58,58 105,110 105,116 0,6 11,21 25,34 14,13 25,19 25,14 0,-5 47,38 105,96 58,58 105,110 105,115 0,6 14,24 30,40 17,16 30,25 30,20 0,-6 47,37 105,95 58,58 105,110 105,116 0,6 11,21 25,34 14,13 25,19 25,14 0,-5 47,38 105,96 58,58 105,110 105,115 0,6 14,24 30,40 17,16 30,25 30,20 0,-6 47,37 105,95 58,58 105,110 105,116 0,13 45,56 51,49 6,-5 202,196 238,244 13,18 26,29 29,26 8,-7 212,196 212,211 0,13 45,56 51,49 6,-5 202,196 238,244 13,18 26,29 29,26 8,-7 212,196 212,211 0,6 11,21 25,34 14,13 25,19 25,14 0,-5 50,41 110,101 61,60 110,115 110,121 0,6 11,21 25,34 14,13 25,19 25,14 0,-5 47,38 105,96 58,58 105,110 105,116 0,6 11,21 25,34 14,13 25,19 25,14 0,-5 50,41 110,101 61,60 110,115 110,121 0,6 11,21 25,34 14,13 25,19 25,14 0,-5 47,38 105,96 58,58 105,110 105,116 0,6 11,21 25,34 14,13 25,20 25,15 0,-4 8,-1 18,8 11,10 29,14 52,11 19,-2 45,-4 58,-4 12,0 25,-6 28,-13 2,-7 15,-14 28,-15 13,-1 44,-10 69,-21 25,-11 47,-17 50,-15 2,3 17,0 33,-7 29,-11 72,-19 107,-20 11,0 44,-11 74,-24 30,-14 59,-22 64,-19 5,3 9,0 9,-6 0,-6 4,-9 10,-5 5,3 26,-1 46,-10 20,-8 39,-13 42,-11 2,3 16,0 31,-6 14,-6 37,-12 51,-14 62,-7 88,-14 135,-34 28,-12 59,-22 70,-23 11,0 23,-6 27,-12 4,-5 18,-11 30,-12 26,-3 68,-9 115,-17 18,-4 45,-8 60,-10 16,-3 51,-14 78,-27 28,-12 61,-23 75,-25 14,-2 50,-10 80,-19 30,-9 78,-18 105,-21 28,-3 55,-10 61,-15 7,-6 20,-11 30,-13 11,-2 42,-13 70,-24 29,-12 54,-18 57,-16 3,3 15,1 26,-6 12,-6 44,-13 72,-16 28,-3 72,-15 98,-26 25,-11 54,-20 64,-21 9,-1 17,-5 17,-9 0,-4 7,-5 16,-1 10,3 22,0 28,-8 6,-8 20,-15 31,-16 11,-2 43,-6 70,-9 28,-3 57,-10 66,-15 9,-4 19,-6 22,-2 3,3 37,-7 74,-22 37,-15 80,-29 95,-30 15,-2 36,-9 46,-14 11,-6 22,-8 25,-4 4,3 21,0 38,-7 30,-13 61,-19 102,-21 9,0 42,-11 73,-25 30,-13 71,-26 89,-29 19,-2 44,-9 56,-16 12,-6 34,-13 48,-14 104,-13 126,-17 132,-27 4,-6 17,-12 30,-13 13,-2 49,-13 79,-25 54,-22 73,-26 155,-33 22,-2 65,-14 95,-26 30,-13 66,-25 80,-27 14,-3 39,-9 55,-14 58,-18 167,-41 172,-37 2,3 48,-13 101,-35 53,-22 114,-42 137,-44 22,-2 62,-8 89,-13 26,-6 52,-8 57,-6 4,3 17,-3 28,-14 11,-11 22,-17 25,-14 3,3 31,-5 61,-17 31,-13 68,-25 83,-27 37,-6 58,-10 117,-23 28,-6 57,-11 65,-12 8,-1 21,-8 29,-15 7,-8 20,-12 27,-9 8,3 14,1 14,-5 0,-6 4,-8 9,-5 5,3 26,-1 47,-10 22,-9 50,-18 64,-20 14,-1 41,-6 60,-9 19,-4 43,-7 53,-7 9,1 15,-3 12,-8 -3,-6 0,-7 8,-4 8,3 40,-6 72,-20 31,-14 61,-24 65,-21 5,3 28,-3 52,-13 23,-11 48,-17 55,-15 7,2 22,-1 34,-7 12,-7 42,-14 68,-15 25,-2 72,-15 104,-29 31,-14 57,-23 57,-21 0,3 10,-1 23,-9 12,-8 46,-17 75,-20 29,-3 58,-8 63,-12 6,-3 31,-7 55,-9 24,-1 50,-8 59,-15 8,-7 15,-10 15,-6 0,3 25,-6 57,-19 31,-14 58,-23 61,-21 2,3 15,0 29,-5 14,-5 42,-12 62,-15 84,-13 135,-26 142,-36 3,-5 16,-10 27,-11 12,-1 22,-5 22,-10 0,-4 4,-6 10,-2 5,3 26,-1 46,-10 20,-8 40,-12 45,-9 5,2 19,-1 31,-7 13,-7 35,-14 51,-16 15,-2 39,-4 55,-6 15,-2 49,-13 76,-25 27,-12 59,-22 71,-22 13,0 25,-5 27,-11 2,-5 17,-12 33,-15 36,-6 69,-11 110,-19 17,-3 44,-7 60,-9 17,-2 59,-16 94,-31 35,-14 65,-24 68,-21 3,2 21,-3 41,-11 20,-8 48,-17 62,-19 14,-2 39,-6 55,-9 17,-3 43,-7 58,-9 15,-2 34,-10 42,-16 8,-7 15,-10 15,-7 0,4 21,-3 46,-14 26,-11 62,-21 81,-24 18,-2 38,-7 44,-10 5,-4 22,-8 37,-11 15,-2 43,-6 62,-10 19,-3 42,-6 50,-6 8,0 23,-7 32,-16 10,-8 32,-16 50,-18 18,-2 38,-10 43,-17 6,-6 19,-13 30,-14 11,-1 35,-4 52,-7 40,-7 83,-15 120,-20 16,-3 53,-16 84,-30 31,-14 60,-22 63,-19 3,3 24,-2 46,-12 22,-10 43,-15 46,-12 4,4 15,2 25,-4 17,-9 47,-15 109,-23 14,-2 54,-15 89,-30 35,-14 66,-24 69,-22 2,3 16,0 31,-6 37,-15 103,-30 185,-42 16,-3 32,-10 36,-17 4,-6 13,-8 19,-5 6,4 11,2 11,-4 0,-6 4,-9 9,-5 12,7 61,-15 61,-27 0,-5 3,-7 8,-4 4,2 27,0 52,-5 46,-10 69,-14 130,-23 19,-3 42,-7 50,-8 8,-2 27,-11 42,-21 15,-11 31,-16 37,-13 5,3 29,-3 54,-13 25,-11 47,-17 50,-15 2,3 17,0 33,-7 16,-6 40,-12 54,-14 58,-8 87,-15 125,-30 22,-10 51,-19 65,-21 14,-3 42,-11 64,-20 21,-8 41,-13 43,-10 3,3 17,0 32,-6 25,-10 71,-19 101,-20 8,-1 53,-16 100,-36 46,-19 96,-36 110,-37 14,-2 36,-5 50,-8 14,-2 50,-7 80,-12 30,-4 63,-14 73,-23 9,-8 17,-12 17,-9 0,3 19,-1 43,-10 45,-16 111,-33 140,-36 9,-1 17,-5 17,-10 0,-4 3,-6 8,-3 4,2 27,0 52,-5 25,-5 52,-11 60,-12 8,-1 21,-8 28,-14 7,-7 25,-13 40,-13 15,0 46,-9 69,-19 23,-11 44,-17 47,-14 3,3 19,0 35,-6 27,-12 51,-17 111,-25 14,-2 43,-10 65,-19 22,-9 51,-18 65,-21 14,-2 43,-11 64,-20 22,-9 41,-14 44,-12 2,3 16,0 31,-6 25,-10 45,-14 112,-21 17,-2 35,-10 40,-18 5,-8 9,-11 9,-7 0,4 22,-1 49,-12 27,-10 52,-16 55,-13 3,4 6,2 6,-3 0,-5 10,-10 23,-10 35,-3 87,-13 97,-19 6,-4 31,-8 56,-11 26,-2 57,-13 71,-24 13,-10 30,-17 37,-14 6,2 28,-2 48,-10 19,-8 38,-13 40,-10 3,2 21,-2 40,-10 20,-9 38,-12 42,-9 3,4 6,2 6,-3 0,-5 10,-10 23,-10 41,-3 82,-13 118,-28 20,-8 39,-12 43,-9 3,4 6,1 6,-6 0,-7 4,-10 9,-7 5,3 28,-1 52,-8 51,-17 127,-38 149,-42 8,-1 32,-4 52,-7 20,-3 51,-13 68,-22 17,-9 43,-18 58,-20 15,-2 40,-8 56,-15 16,-6 43,-13 60,-16 17,-3 42,-7 56,-9 14,-3 39,-7 55,-9 17,-3 62,-18 102,-35 39,-16 73,-27 76,-25 2,3 17,-1 33,-7 16,-6 38,-13 49,-15 11,-1 43,-8 70,-14 28,-6 58,-11 68,-11 10,0 49,-14 88,-30 39,-17 73,-28 76,-25 3,2 17,0 32,-6 33,-13 100,-29 124,-29 10,0 38,-9 62,-19 24,-10 46,-16 49,-13 3,4 6,1 6,-5 0,-6 6,-9 13,-6 7,2 30,-3 51,-11 21,-9 40,-14 43,-11 3,2 21,-3 41,-11 20,-8 57,-17 82,-18 25,-2 71,-15 104,-30 32,-14 61,-24 64,-21 2,3 21,-2 40,-10 20,-8 52,-17 71,-20 20,-3 50,-8 66,-10 17,-3 39,-7 50,-8 11,-2 52,-16 90,-32 39,-16 76,-27 82,-26 7,2 22,-2 32,-8 11,-5 37,-13 58,-16 21,-3 47,-7 58,-10 11,-2 34,-6 50,-8 17,-3 63,-19 104,-35 40,-17 77,-28 82,-25 5,3 19,-1 31,-7 13,-7 37,-14 53,-16 78,-9 124,-21 142,-36 7,-5 25,-11 40,-12 16,-1 46,-10 67,-19 22,-9 41,-14 44,-12 2,3 16,0 31,-6 14,-6 37,-12 51,-14 67,-9 90,-15 136,-34 27,-12 57,-22 67,-23 9,-1 17,-5 17,-10 0,-4 4,-6 9,-3 5,4 22,1 38,-5 15,-6 42,-13 58,-15 17,-2 41,-6 55,-8 14,-3 39,-7 56,-10 16,-2 57,-16 89,-31 32,-14 74,-28 92,-30 19,-2 38,-7 44,-11 6,-3 20,-7 32,-9 12,-2 40,-7 62,-10 22,-4 46,-7 53,-8 6,0 12,-4 12,-8 0,-4 9,-5 20,-2 12,3 22,-1 26,-11 3,-9 10,-14 14,-11 4,3 27,-1 51,-9 89,-29 120,-38 149,-42 17,-2 43,-6 59,-9 16,-2 51,-13 76,-25 26,-12 49,-19 52,-16 3,2 25,-4 50,-15 25,-11 48,-17 50,-15 3,3 17,0 32,-5 25,-10 60,-17 111,-23 14,-2 53,-15 87,-29 34,-14 64,-23 67,-19 3,3 14,-2 23,-10 10,-8 25,-16 33,-16 8,0 31,-3 50,-7 39,-7 76,-13 118,-19 15,-2 59,-17 99,-34 39,-17 74,-28 77,-25 3,3 20,0 37,-7 18,-8 41,-15 53,-16 12,-2 35,-5 51,-8 17,-3 45,-7 64,-9 18,-2 39,-10 45,-18 6,-8 18,-13 26,-12 9,2 24,-2 34,-10 16,-12 -567,-598 -6377,-6407 -3517,-3517 -6406,-6414 -6421,-6438 -26,-41 -39,-63 -93,-160 -115,-204 -143,-527 -70,-787 22,-76 101,-242 127,-265 3,-3 14,-22 25,-42 11,-21 23,-38 27,-38 5,0 8,-6 8,-13 0,-18 195,-214 220,-222 11,-4 20,-10 20,-15 0,-5 16,-14 35,-21 19,-7 35,-17 35,-21 0,-4 16,-14 35,-22 19,-8 35,-20 35,-27 0,-6 7,-9 15,-5 8,3 15,2 15,-2 0,-11 149,-72 191,-78 19,-3 43,-7 54,-10 113,-24 221,-30 330,-20 71,7 101,12 117,22 7,5 8,3 3,-5 -6,-10 -3,-11 14,-1 12,6 31,13 42,16 10,2 28,6 38,8 11,3 29,10 40,16 12,6 21,8 21,4 0,-3 11,1 25,10 14,9 25,14 25,11 0,-4 14,3 30,15 17,12 30,18 30,15 0,-4 23,10 50,30 28,20 50,34 50,30 0,-4 18,8 40,25 22,17 40,28 40,24 0,-5 50,41 110,101 61,60 110,115 110,121 0,6 11,21 25,34 14,13 25,19 25,14 0,-5 47,38 105,96 58,58 105,110 105,116 0,6 11,21 25,34 14,13 25,19 25,14 0,-5 50,41 110,101 61,60 110,115 110,121 0,6 11,21 25,34 14,13 25,19 25,14 0,-5 47,38 105,96 58,58 105,110 105,116 0,6 11,21 25,34 14,13 25,19 25,14 0,-5 50,41 110,101 61,60 110,115 110,121 0,6 11,21 25,34 14,13 25,19 25,14 0,-5 47,38 105,96 58,58 105,110 105,116 0,6 11,21 25,34 14,13 25,19 25,14 0,-5 50,41 110,101 61,60 110,115 110,121 0,6 11,21 25,34 14,13 25,19 25,14 0,-5 47,38 105,96 58,58 105,110 105,116 0,6 11,21 25,34 14,13 25,19 25,14 0,-5 50,41 110,101 61,60 110,115 110,121 0,6 11,21 25,34 14,13 25,19 25,14 0,-5 47,38 105,96 58,58 105,110 105,116 0,6 11,21 25,34 14,13 25,19 25,14 0,-5 50,41 110,101 61,60 110,115 110,121 0,6 11,21 25,34 14,13 25,19 25,14 0,-5 47,38 105,96 58,58 105,110 105,116 0,6 11,21 25,34 14,13 25,19 25,14 0,-5 50,41 110,101 61,60 110,115 110,121 0,6 11,21 25,34 14,13 25,19 25,14 0,-5 47,38 105,96 58,58 105,110 105,116 0,6 11,21 25,34 14,13 25,19 25,14 0,-5 50,41 110,101 61,60 110,115 110,121 0,6 11,21 25,34 14,13 25,19 25,14 0,-5 47,38 105,96 58,58 105,110 105,116 0,6 11,21 25,34 14,13 25,19 25,14 0,-5 50,41 110,101 61,60 110,115 110,121 0,6 11,21 25,34 14,13 25,19 25,14 0,-5 47,38 105,96 58,58 105,110 105,116 0,6 11,21 25,34 14,13 25,19 25,14 0,-5 50,41 110,101 61,60 110,115 110,121 0,6 11,21 25,34 14,13 25,19 25,14 0,-5 47,38 105,96 58,58 105,110 105,116 0,6 11,21 25,34 14,13 25,19 25,14 0,-5 50,41 110,101 61,60 110,115 110,121 0,6 11,21 25,34 14,13 25,19 25,14 0,-5 47,38 105,96 58,58 105,110 105,116 0,6 11,21 25,34 14,13 25,19 25,14 0,-5 50,41 110,101 61,60 110,115 110,121 0,6 11,21 25,34 14,13 25,19 25,14 0,-5 47,38 105,96 58,58 105,110 105,115 0,6 14,24 32,41 17,16 28,22 23,14 -4,-8 42,34 104,95 61,60 111,115 111,121 0,6 11,21 25,34 14,13 25,19 25,14 0,-5 47,38 105,96 58,58 105,110 105,115 0,6 14,24 32,41 17,16 28,22 23,14 -4,-8 42,34 104,95 61,60 111,115 111,121 0,6 11,21 25,34 14,13 25,19 25,14 0,-5 47,38 105,96 58,58 105,110 105,115 0,6 14,24 30,40 17,16 30,25 30,20 0,-6 47,37 105,95 58,58 105,110 105,116 0,6 11,21 25,34 14,13 25,19 25,14 0,-5 47,38 105,96 58,58 105,110 105,115 0,6 14,24 30,40 17,16 30,25 30,20 0,-6 47,37 105,95 58,58 105,110 105,116 0,6 11,21 25,34 14,13 25,19 25,14 0,-5 47,38 105,96 58,58 105,110 105,115 0,6 14,24 30,40 17,16 30,25 30,20 0,-6 47,37 105,95 58,58 105,110 105,115 0,6 14,24 32,41 17,16 28,22 23,14 -4,-8 42,34 103,94 61,60 109,113 107,116 -2,4 9,20 25,35 17,16 30,25 30,20 0,-6 47,37 105,95 58,58 105,110 105,115 0,6 14,24 32,41 17,16 28,22 23,14 -4,-8 42,34 103,94 61,60 109,113 107,116 -2,4 9,20 25,35 17,16 30,25 30,20 0,-6 47,37 105,95 58,58 105,110 105,115 0,6 14,24 30,40 17,16 30,25 30,20 0,-6 47,37 104,94 58,58 103,108 101,111 -2,4 9,20 25,35 17,16 30,25 30,20 0,-6 47,37 105,95 58,58 105,110 105,115 0,6 13,24 30,40 17,16 30,25 30,20 0,-6 47,37 105,95 58,58 105,110 105,116 0,6 11,21 25,34 14,13 25,19 25,14 0,-5 47,38 105,96 58,58 105,110 105,115 0,6 14,24 30,40 17,16 30,25 30,20 0,-6 47,37 105,95 58,58 105,110 105,116 0,6 11,21 25,34 14,13 25,19 25,14 0,-5 49,40 109,100 61,61 108,113 106,116 -2,4 9,20 25,35 17,16 30,25 30,20 0,-6 47,37 105,95 58,58 105,110 105,116 0,6 11,21 25,34 14,13 25,19 25,14 0,-5 49,40 109,100 61,61 108,113 106,116 -2,4 9,20 25,35 17,16 30,25 30,20 0,-6 47,37 105,95 58,58 105,110 105,116 0,6 11,21 25,34 14,13 25,19 25,14 0,-5 49,40 109,100 61,61 108,113 106,116 -2,4 9,20 25,35 17,16 30,25 30,20 0,-6 47,37 105,95 58,58 105,110 105,116 0,6 11,21 25,34 14,13 25,19 25,14 0,-5 50,41 110,101 61,60 110,115 110,121 0,6 11,21 25,34 14,13 25,19 25,14 0,-5 47,38 105,96 58,58 105,110 105,116 0,6 11,21 25,34 14,13 25,19 25,14 0,-5 50,41 110,101 61,60 110,115 110,121 0,6 11,21 25,34 14,13 25,19 25,14 0,-5 47,38 105,96 58,58 105,110 105,116 0,6 11,21 25,34 14,13 25,19 25,14 0,-5 49,41 110,101 61,60 110,115 110,121 0,15 35,46 43,38 8,-8 227,213 227,228 0,6 11,26 25,44 14,18 25,36 25,39 0,4 14,26 31,50 44,61 95,205 123,350 37,189 3,477 -74,617 -6,10 -10,27 -10,38 0,11 -3,20 -8,20 -4,0 -16,17 -27,38 -11,20 -24,42 -30,49 -21,26 -31,40 -49,72 -10,19 -36,52 -57,74 -22,22 -39,43 -39,48 0,5 -5,9 -10,9 -6,0 -32,21 -58,48 -52,51 -105,92 -122,92 -5,0 -18,8 -28,18 -10,10 -32,24 -50,31 -18,7 -32,17 -32,21 0,9 -175,81 -207,85 -11,2 -32,6 -45,11 -26,8 -44,11 -108,17 -25,3 -69,15 -98,27 -29,13 -55,20 -58,17 -3,-3 -26,3 -51,14 -25,11 -48,17 -50,15 -3,-3 -17,0 -32,6 -14,5 -44,11 -66,13 -22,2 -45,3 -52,4 -6,1 -19,8 -27,17 -9,8 -16,13 -16,10 0,-3 -22,3 -49,14 -27,10 -52,16 -55,13 -3,-4 -6,-1 -6,5 0,6 -6,9 -14,6 -8,-3 -24,0 -37,6 -12,7 -34,14 -48,15 -105,13 -126,18 -148,35 -13,10 -30,17 -38,14 -7,-3 -27,2 -44,10 -16,9 -46,18 -66,21 -19,2 -40,7 -46,11 -6,3 -23,7 -37,9 -15,2 -43,6 -62,10 -19,4 -41,7 -47,7 -7,1 -13,5 -13,9 0,7 -39,20 -70,24 -8,1 -31,7 -50,13 -58,19 -172,44 -177,39 -3,-3 -36,8 -75,24 -38,17 -72,28 -75,26 -2,-3 -19,1 -37,8 -34,15 -66,22 -126,31 -19,3 -44,7 -55,9 -11,2 -25,4 -32,4 -6,1 -19,8 -27,17 -9,8 -16,13 -16,10 0,-3 -19,2 -42,10 -24,9 -54,18 -68,20 -14,3 -32,7 -40,11 -24,9 -153,34 -177,34 -11,0 -24,6 -27,14 -3,8 -16,15 -29,15 -14,0 -42,7 -63,16 -22,9 -50,18 -64,20 -14,1 -45,8 -70,14 -25,5 -56,12 -70,14 -40,7 -53,11 -79,25 -13,7 -36,15 -50,16 -14,2 -57,13 -96,25 -38,11 -90,22 -115,24 -25,3 -71,16 -103,30 -32,15 -63,24 -68,21 -5,-4 -9,-1 -9,5 0,6 -4,8 -10,5 -5,-3 -18,-1 -29,5 -11,5 -37,13 -58,16 -21,3 -51,8 -68,10 -16,3 -39,7 -50,8 -31,5 -55,17 -55,28 0,5 -4,6 -10,3 -5,-3 -10,-2 -10,4 0,6 -6,8 -14,5 -8,-3 -28,2 -46,11 -17,9 -37,14 -43,12 -7,-2 -19,-1 -28,4 -9,5 -31,11 -50,14 -19,4 -45,8 -59,11 -14,2 -41,7 -60,11 -19,3 -40,12 -48,20 -7,7 -17,11 -22,8 -4,-3 -29,4 -55,15 -26,11 -51,18 -56,15 -5,-3 -19,0 -31,6 -13,7 -35,14 -50,16 -16,2 -40,5 -55,6 -16,2 -52,14 -81,27 -29,12 -55,20 -58,17 -3,-3 -27,4 -52,15 -26,11 -58,22 -72,24 -14,2 -38,6 -55,9 -16,3 -44,7 -61,10 -17,2 -53,14 -80,25 -27,12 -57,22 -66,23 -10,1 -18,5 -18,10 0,4 -4,6 -9,3 -5,-4 -22,-1 -38,5 -15,6 -39,13 -53,15 -14,2 -36,5 -50,8 -14,3 -43,7 -65,10 -22,3 -44,12 -50,19 -5,8 -15,12 -22,10 -6,-2 -25,3 -42,11 -16,9 -46,18 -66,21 -19,2 -40,7 -46,11 -6,3 -20,7 -32,9 -12,2 -39,6 -60,9 -21,3 -47,10 -56,16 -10,5 -21,6 -25,2 -4,-3 -11,0 -15,7 -5,7 -22,15 -37,17 -16,2 -46,10 -65,18 -20,8 -39,13 -42,10 -3,-3 -14,-1 -25,5 -12,6 -38,13 -59,16 -21,4 -47,7 -58,9 -11,2 -44,13 -74,25 -29,12 -56,20 -58,17 -3,-2 -25,4 -50,15 -25,11 -62,22 -82,25 -20,3 -47,8 -61,10 -14,3 -34,6 -45,8 -33,3 -65,17 -65,27 0,6 -4,8 -10,4 -5,-3 -26,2 -47,11 -21,8 -49,17 -63,19 -14,2 -45,9 -70,15 -45,11 -74,16 -127,24 -16,2 -60,17 -100,34 -39,17 -74,28 -77,25 -3,-3 -20,0 -37,7 -18,8 -41,15 -53,16 -12,2 -30,5 -41,7 -11,3 -39,8 -62,12 -24,4 -43,12 -43,17 0,5 -4,6 -10,3 -5,-3 -10,-2 -10,4 0,6 -6,8 -13,5 -8,-3 -35,4 -62,16 -26,11 -50,18 -52,16 -3,-3 -17,0 -32,6 -14,5 -37,11 -51,13 -61,8 -88,15 -133,34 -27,12 -53,19 -58,15 -5,-3 -9,0 -9,7 0,7 -3,10 -6,6 -3,-3 -25,1 -47,10 -23,8 -53,16 -67,18 -14,2 -41,7 -60,10 -19,3 -45,8 -57,9 -12,2 -50,14 -85,28 -79,32 -130,45 -240,64 -18,3 -42,7 -53,9 -11,2 -45,13 -75,26 -53,21 -69,26 -175,49 -62,14 -93,20 -123,23 -13,2 -26,7 -30,12 -4,6 -18,12 -32,13 -14,2 -45,12 -69,23 -24,11 -46,17 -49,15 -2,-3 -16,0 -30,5 -23,9 -46,14 -112,23 -14,1 -48,12 -76,24 -29,11 -55,18 -58,15 -3,-4 -6,-1 -6,5 0,6 -7,9 -17,5 -9,-4 -14,-2 -11,3 4,5 -4,10 -15,11 -40,3 -88,13 -100,20 -10,6 -54,13 -90,14 -9,0 -42,11 -73,25 -30,13 -71,26 -89,29 -19,2 -44,9 -56,16 -12,6 -43,12 -69,14 -26,2 -57,8 -68,14 -10,6 -21,8 -24,6 -8,-9 -68,17 -62,26 3,5 -2,6 -10,3 -8,-3 -28,2 -45,11 -17,9 -37,15 -44,13 -6,-1 -30,4 -52,12 -22,7 -49,15 -60,16 -21,2 -87,13 -108,17 -7,1 -15,6 -18,11 -4,5 -17,10 -30,11 -13,2 -47,12 -75,23 -29,12 -54,19 -57,16 -2,-2 -17,0 -33,7 -16,6 -41,13 -56,15 -16,2 -40,6 -55,8 -16,3 -53,16 -84,30 -31,14 -59,22 -63,19 -3,-3 -23,2 -44,10 -22,9 -42,14 -45,11 -3,-3 -15,-1 -26,6 -12,6 -44,13 -72,16 -27,3 -81,18 -119,34 -38,15 -70,26 -73,24 -2,-3 -17,1 -33,7 -16,6 -40,13 -54,15 -77,11 -92,14 -108,22 -9,5 -22,8 -28,5 -6,-2 -43,10 -83,27 -40,17 -75,29 -78,26 -3,-2 -17,0 -32,6 -14,6 -44,15 -66,19 -37,9 -53,12 -110,21 -11,2 -26,9 -34,16 -7,7 -20,11 -28,8 -9,-4 -11,-1 -7,5 4,7 1,10 -7,7 -8,-3 -32,1 -54,9 -22,8 -52,16 -68,18 -15,2 -32,7 -38,11 -10,6 -57,14 -92,15 -9,0 -42,11 -72,25 -31,13 -65,24 -76,24 -11,0 -29,4 -39,10 -10,5 -36,12 -57,15 -21,3 -51,8 -68,11 -16,3 -39,6 -50,8 -11,2 -51,16 -90,32 -38,16 -76,27 -82,26 -7,-2 -22,2 -33,8 -11,6 -35,13 -53,16 -18,3 -43,7 -57,10 -14,3 -39,6 -56,8 -17,3 -64,18 -104,35 -40,17 -75,29 -78,27 -2,-3 -21,1 -41,9 -20,7 -63,18 -96,23 -83,14 -88,15 -103,30 -12,11 -34,16 -54,13 -5,0 -8,3 -8,9 0,5 -6,7 -14,4 -8,-3 -24,0 -37,6 -12,7 -36,14 -53,16 -17,2 -44,6 -61,9 -16,3 -38,6 -48,6 -9,0 -42,11 -73,25 -31,14 -68,26 -82,28 -15,2 -40,9 -57,16 -16,6 -41,13 -55,15 -14,2 -36,6 -50,9 -14,2 -41,7 -61,10 -19,2 -62,16 -94,31 -32,14 -63,24 -69,22 -6,-2 -31,5 -55,15 -24,10 -46,16 -48,14 -3,-3 -17,0 -32,6 -14,5 -45,11 -68,13 -23,1 -49,7 -56,13 -8,7 -17,9 -20,5 -4,-3 -7,0 -7,7 0,7 -3,11 -6,7 -3,-3 -28,3 -54,13 -26,10 -51,16 -54,13 -3,-4 -6,-2 -6,3 0,5 -8,10 -17,11 -19,1 -84,11 -118,18 -11,3 -35,8 -52,11 -18,3 -33,10 -33,14 0,9 -49,25 -64,21 -6,-1 -26,4 -45,13 -20,8 -54,18 -76,22 -22,4 -49,9 -60,11 -11,2 -28,4 -38,4 -9,0 -48,13 -86,29 -38,15 -71,26 -74,24 -2,-3 -17,1 -33,7 -41,16 -114,33 -191,43 -16,1 -57,15 -92,30 -35,15 -65,25 -68,22 -3,-2 -21,3 -41,11 -20,8 -50,17 -67,19 -16,2 -41,5 -55,8 -14,2 -38,7 -54,9 -15,2 -32,10 -36,17 -4,7 -13,9 -20,5 -9,-6 -11,-4 -5,5 5,8 3,11 -6,8 -8,-3 -32,1 -54,9 -22,8 -52,16 -68,18 -15,2 -32,7 -38,10 -5,4 -23,8 -39,11 -17,2 -45,7 -62,10 -18,3 -40,6 -48,6 -8,1 -26,9 -39,20 -13,10 -34,18 -46,18 -12,0 -39,7 -60,16 -20,8 -39,13 -42,10 -3,-2 -17,0 -32,6 -26,10 -34,12 -102,22 -19,3 -60,16 -91,30 -31,14 -58,22 -62,19 -3,-3 -24,2 -47,11 -23,9 -44,15 -47,12 -2,-3 -14,-1 -24,5 -11,6 -42,12 -69,14 -27,2 -61,10 -74,19 -14,9 -25,14 -25,12 0,-3 -21,4 -46,15 -26,11 -49,17 -51,15 -3,-3 -17,0 -32,6 -32,13 -158,39 -188,39 -12,-1 -26,6 -30,14 -5,8 -22,17 -38,19 -17,2 -47,10 -67,19 -20,8 -39,13 -42,10 -3,-3 -19,0 -35,6 -16,7 -42,14 -57,17 -16,2 -42,6 -59,9 -16,3 -38,6 -47,7 -10,1 -18,5 -18,9 0,9 -50,30 -60,24 -4,-3 -29,4 -55,15 -26,11 -51,18 -56,15 -5,-3 -19,0 -31,6 -21,11 -34,14 -103,22 -11,1 -45,12 -75,23 -55,21 -126,42 -167,49 -11,1 -32,6 -45,11 -12,4 -36,8 -53,9 -45,3 -85,16 -85,28 0,6 -3,8 -6,4 -3,-3 -28,3 -54,13 -26,10 -51,16 -54,13 -3,-4 -6,-1 -6,6 0,7 -4,10 -9,7 -5,-4 -22,-1 -38,5 -15,6 -39,12 -53,14 -14,2 -47,7 -75,10 -27,4 -60,15 -73,26 -14,10 -28,16 -32,14 -5,-3 -31,4 -58,14 -27,11 -52,18 -55,15 -2,-2 -17,0 -33,7 -16,6 -45,13 -64,15 -19,2 -47,7 -62,10 -15,3 -30,5 -33,4 -3,0 -13,6 -21,15 -9,8 -21,15 -27,16 -33,2 -56,7 -92,18 -82,26 -107,33 -138,37 -18,3 -41,6 -52,8 -11,2 -44,13 -74,25 -29,12 -56,20 -58,17 -3,-2 -21,3 -41,11 -20,9 -48,18 -62,20 -14,2 -41,6 -60,9 -19,3 -44,7 -55,9 -11,2 -25,4 -32,4 -6,1 -18,8 -27,16 -8,9 -18,16 -21,15 -28,-2 -37,4 -45,28 -6,15 -14,34 -19,43 -6,9 -15,45 -21,80 -13,72 -37,162 -51,197 -5,13 -9,34 -9,47 0,13 -6,30 -13,37 -7,7 -20,51 -29,98 -9,47 -23,110 -32,140 -9,30 -19,70 -22,88 -4,17 -10,32 -14,32 -4,0 -10,12 -13,28 -3,15 -14,76 -26,136 -11,60 -25,114 -31,120 -5,5 -10,17 -10,26 0,8 -7,28 -15,43 -8,16 -20,56 -26,90 -27,148 -42,207 -50,207 -5,0 -9,13 -9,29 0,16 -6,36 -13,43 -7,7 -19,47 -26,88 -7,41 -16,89 -21,105 -36,126 -44,154 -57,185 -7,19 -22,84 -33,143 -10,60 -23,114 -28,120 -5,7 -12,29 -16,49 -4,20 -11,38 -15,40 -5,2 -15,32 -21,68 -26,150 -59,270 -80,296 -8,9 -27,96 -47,209 -2,17 -11,44 -19,62 -8,17 -14,38 -14,48 0,9 -7,29 -15,44 -8,16 -22,73 -31,127 -9,55 -22,113 -29,129 -8,17 -16,45 -20,63 -4,17 -10,32 -14,32 -8,0 -31,95 -31,130 0,14 -10,57 -21,95 -11,39 -23,81 -26,95 -3,14 -12,32 -19,40 -7,9 -18,49 -25,90 -6,41 -15,83 -20,92 -5,10 -9,29 -9,43 0,14 -4,33 -9,43 -18,34 -53,148 -63,202 -23,134 -31,171 -39,176 -5,3 -9,13 -9,22 0,9 -11,44 -25,77 -13,33 -25,76 -25,95 0,19 -10,67 -21,105 -11,39 -24,85 -29,104 -5,19 -12,37 -17,40 -9,7 -11,13 -25,91 -19,105 -50,215 -80,288 -9,23 -22,81 -28,128 -6,47 -17,102 -25,122 -7,20 -25,67 -39,104 -14,36 -26,81 -26,100 -1,35 -20,120 -41,178 -7,19 -23,63 -36,97 -13,34 -23,76 -23,94 0,18 -4,46 -9,63 -5,17 -17,58 -26,91 -19,64 -26,86 -43,125 -7,14 -14,48 -17,75 -9,90 -28,160 -69,258 -9,20 -20,63 -25,95 -14,84 -30,155 -41,174 -6,10 -10,23 -10,30 0,7 -11,40 -25,73 -13,33 -25,75 -25,94 0,19 -4,48 -9,65 -5,17 -17,58 -26,91 -10,33 -26,83 -35,110 -10,28 -21,72 -25,99 -4,27 -10,58 -15,70 -4,11 -13,46 -20,76 -7,30 -21,74 -32,97 -10,23 -22,68 -25,100 -3,32 -9,63 -13,68 -4,6 -11,28 -14,50 -8,44 -26,100 -52,160 -9,22 -20,65 -25,95 -12,85 -25,138 -54,220 -15,41 -31,99 -35,129 -5,29 -13,65 -18,80 -6,14 -16,53 -23,86 -7,33 -18,71 -25,85 -20,39 -34,90 -34,122 0,29 -14,82 -51,193 -11,33 -21,65 -22,70 -2,6 -6,15 -10,22 -4,6 -11,37 -17,70 -18,114 -29,159 -56,228 -14,39 -30,94 -35,124 -4,29 -12,65 -17,80 -5,14 -15,51 -22,81 -6,30 -23,83 -36,117 -13,34 -24,76 -24,94 0,18 -4,46 -10,63 -5,17 -17,58 -26,91 -9,33 -20,69 -25,80 -23,52 -39,111 -39,146 0,21 -4,41 -10,44 -5,3 -10,20 -10,36 0,16 -16,72 -35,123 -19,52 -35,105 -35,120 0,14 -6,45 -13,68 -8,24 -20,68 -27,98 -18,79 -41,149 -51,156 -5,3 -9,20 -9,37 -1,29 -26,140 -51,227 -6,19 -13,48 -16,65 -3,16 -12,35 -19,43 -8,7 -14,30 -14,50 0,19 -4,49 -9,66 -5,17 -22,74 -37,126 -15,52 -30,97 -34,100 -4,3 -10,25 -12,50 -4,39 -22,112 -69,278 -6,23 -15,42 -20,42 -5,0 -9,15 -9,33 -1,29 -25,139 -51,227 -6,19 -13,48 -16,65 -3,16 -12,35 -19,43 -8,7 -14,30 -14,50 0,19 -4,49 -9,66 -29,94 -61,215 -61,229 0,10 -4,17 -10,17 -5,0 -10,13 -10,30 0,16 -6,49 -14,72 -7,24 -19,70 -26,103 -7,33 -17,64 -22,69 -4,6 -8,20 -8,32 0,13 -7,29 -15,38 -8,8 -15,25 -15,37 0,39 -22,141 -46,218 -13,40 -24,80 -24,88 0,8 -7,21 -15,29 -8,9 -15,32 -15,52 0,19 -4,49 -9,66 -29,95 -61,217 -61,230 0,9 -4,16 -10,16 -5,0 -10,13 -10,30 0,16 -6,49 -14,72 -7,24 -19,70 -26,103 -7,33 -17,64 -22,70 -4,5 -8,18 -8,30 0,11 -6,29 -13,40 -7,11 -19,58 -26,105 -8,47 -19,99 -26,115 -6,17 -18,55 -25,85 -7,30 -18,62 -25,70 -7,8 -15,33 -18,55 -21,140 -29,176 -46,216 -12,24 -21,54 -21,67 0,12 -4,22 -10,22 -5,0 -10,13 -10,29 0,16 -7,51 -15,77 -8,27 -21,76 -29,109 -28,113 -39,150 -46,155 -3,3 -12,39 -19,80 -6,41 -18,93 -25,115 -8,22 -20,63 -26,90 -7,28 -17,55 -22,62 -10,13 -32,110 -42,189 -3,27 -15,68 -26,89 -11,22 -20,49 -20,60 0,12 -4,25 -9,30 -5,6 -17,46 -26,90 -26,123 -66,269 -74,275 -5,3 -14,43 -21,90 -6,47 -19,105 -27,130 -8,25 -20,63 -26,85 -7,22 -17,45 -22,51 -6,6 -19,63 -29,125 -10,63 -24,123 -31,134 -7,11 -16,36 -20,55 -4,19 -11,40 -15,45 -5,6 -15,42 -23,80 -15,74 -9,92 24,74 10,-5 35,-11 56,-14 21,-4 47,-7 58,-9 11,-2 58,-19 105,-38 47,-19 92,-35 100,-36 45,-2 127,-15 143,-23 9,-6 22,-7 27,-4 6,3 10,1 10,-5 0,-6 5,-8 10,-5 6,3 10,1 10,-5 0,-7 7,-10 15,-6 8,3 15,1 15,-5 0,-6 5,-7 10,-4 6,3 10,1 10,-5 0,-6 4,-9 10,-5 5,3 25,-1 44,-9 19,-8 37,-12 40,-9 3,3 19,0 35,-6 28,-12 70,-21 101,-22 8,0 42,-11 75,-23 60,-23 131,-44 172,-51 11,-1 32,-6 45,-11 12,-4 32,-9 43,-10 67,-9 87,-14 155,-44 41,-18 87,-34 103,-36 15,-2 42,-6 60,-9 17,-3 48,-7 67,-8 51,-6 90,-18 90,-29 0,-5 4,-7 8,-4 4,2 27,-4 51,-15 24,-10 47,-16 52,-13 5,3 9,0 9,-6 0,-6 4,-9 9,-6 5,4 22,1 38,-5 15,-6 37,-12 48,-13 102,-14 133,-21 154,-37 13,-10 27,-16 32,-13 5,3 9,1 9,-4 0,-6 9,-8 20,-5 12,3 22,-1 26,-11 3,-9 10,-14 14,-11 5,3 30,0 57,-6 26,-6 68,-13 93,-16 25,-3 75,-18 112,-33 36,-16 69,-25 73,-22 3,4 10,1 14,-6 4,-7 22,-15 39,-18 42,-6 91,-14 122,-20 14,-2 36,-6 50,-8 14,-2 39,-9 55,-16 36,-15 151,-50 182,-55 11,-1 32,-6 45,-11 12,-4 39,-8 58,-10 19,-1 40,-2 47,-3 6,0 19,-8 27,-17 9,-8 16,-13 16,-10 0,3 22,-3 49,-14 27,-10 52,-16 55,-13 3,4 6,1 6,-5 0,-6 6,-9 14,-6 8,3 24,0 37,-6 12,-7 36,-14 53,-16 17,-2 45,-6 61,-9 17,-3 38,-5 48,-6 10,0 27,-9 37,-19 11,-11 26,-17 35,-14 8,4 26,-1 40,-10 14,-9 25,-14 25,-11 0,3 10,1 21,-6 12,-6 34,-13 48,-14 27,-4 64,-10 116,-18 17,-3 51,-14 77,-25 25,-11 48,-18 51,-16 2,3 27,-4 55,-15 27,-11 52,-18 55,-15 2,2 17,0 33,-7 27,-10 39,-13 112,-23 16,-3 54,-16 85,-30 32,-14 55,-21 52,-16 -3,5 10,3 30,-6 19,-8 50,-17 68,-20 17,-3 43,-7 57,-10 38,-7 74,-12 87,-13 6,-1 19,-8 27,-17 9,-8 16,-13 16,-10 0,3 30,-5 67,-19 36,-14 68,-23 71,-20 2,2 12,0 22,-5 9,-5 41,-12 71,-15 82,-10 83,-10 109,-28 14,-9 35,-17 48,-17 12,0 39,-7 60,-16 20,-9 48,-17 62,-19 14,-2 45,-9 70,-15 25,-6 53,-11 63,-11 10,0 38,-9 63,-20 25,-10 54,-19 64,-19 10,0 39,-9 65,-20 25,-11 43,-15 40,-10 -3,5 11,2 32,-7 21,-8 56,-16 79,-18 23,-1 77,-17 120,-35 43,-18 90,-34 104,-36 14,-2 36,-5 50,-8 23,-4 73,-12 125,-21 31,-4 55,-16 55,-27 0,-5 5,-6 10,-3 6,3 10,2 10,-4 0,-6 6,-8 13,-5 7,2 30,-3 51,-11 21,-9 41,-14 43,-11 3,3 14,1 24,-4 9,-6 35,-13 56,-16 21,-3 47,-7 58,-10 11,-2 29,-5 40,-6 11,-2 26,-9 33,-15 12,-12 34,-17 54,-14 4,0 28,-8 53,-19 26,-11 50,-18 55,-15 4,3 25,-2 45,-11 20,-8 39,-13 42,-10 3,2 19,-2 38,-9 18,-8 35,-12 38,-9 5,5 89,-26 129,-47 10,-5 35,-12 55,-15 21,-3 49,-7 63,-10 28,-5 61,-11 106,-18 17,-3 53,-15 80,-26 27,-12 57,-22 67,-23 9,-1 17,-5 17,-9 0,-4 6,-5 14,-2 8,3 24,0 37,-6 12,-7 36,-14 53,-16 17,-2 45,-6 61,-9 17,-3 37,-6 45,-7 8,0 25,-9 38,-19 13,-10 29,-16 37,-13 7,3 27,-2 44,-10 16,-9 46,-18 66,-21 19,-2 40,-7 46,-11 6,-3 23,-8 37,-10 64,-8 91,-14 136,-34 26,-11 52,-18 56,-15 5,3 16,-2 24,-11 9,-9 30,-18 46,-20 32,-3 64,-8 117,-18 18,-4 45,-8 60,-10 16,-3 54,-16 86,-31 32,-14 56,-21 52,-15 -3,5 13,1 37,-9 44,-18 71,-24 203,-45 31,-5 55,-17 55,-28 0,-5 4,-7 10,-3 5,3 26,-2 47,-11 21,-8 49,-17 63,-19 14,-2 48,-9 75,-15 78,-18 98,-21 122,-22 12,0 24,-6 27,-14 3,-8 16,-14 29,-14 14,0 42,-7 63,-16 22,-9 50,-18 64,-20 14,-1 45,-8 70,-14 25,-6 58,-13 73,-15 16,-3 47,-13 70,-23 23,-10 47,-17 53,-15 6,2 32,-6 59,-17 26,-11 50,-18 52,-16 3,3 17,0 32,-6 26,-10 69,-18 104,-19 9,0 42,-11 73,-25 30,-13 60,-22 65,-19 5,4 9,1 9,-6 0,-7 3,-10 6,-6 3,3 25,-1 47,-10 23,-8 53,-16 67,-18 14,-2 41,-7 60,-10 19,-3 46,-8 60,-9 13,-2 26,-9 28,-15 2,-6 8,-9 13,-6 4,3 31,-4 59,-16 28,-12 53,-19 56,-16 3,3 22,-2 42,-10 20,-8 49,-17 64,-19 15,-2 43,-7 60,-10 18,-3 40,-6 48,-6 8,-1 21,-7 28,-15 8,-7 17,-11 22,-8 4,3 25,-3 46,-12 22,-9 55,-20 74,-24 91,-21 137,-31 165,-35 61,-9 67,-11 73,-20 4,-5 18,-11 32,-12 14,-2 45,-12 69,-23 24,-10 47,-16 52,-13 5,3 18,0 29,-6 11,-6 43,-13 71,-16 27,-3 80,-18 117,-33 37,-15 73,-26 81,-23 8,2 11,1 8,-4 -3,-5 5,-10 16,-11 57,-5 84,-10 97,-18 14,-9 58,-16 98,-15 12,0 25,-7 28,-14 3,-8 12,-12 19,-10 7,3 27,-2 45,-11 17,-9 47,-18 66,-21 20,-2 45,-9 56,-15 11,-6 42,-12 69,-14 26,-2 55,-7 65,-13 9,-5 25,-7 35,-5 11,3 21,-1 25,-10 3,-9 12,-13 21,-10 11,4 14,2 9,-5 -4,-7 -2,-10 7,-7 7,3 30,-2 51,-10 21,-9 40,-14 43,-11 3,2 21,-3 41,-11 20,-8 48,-17 62,-18 14,-2 39,-6 55,-9 17,-3 39,-7 50,-8 11,-2 23,-7 26,-12 4,-5 17,-10 30,-11 13,-2 47,-12 75,-23 29,-12 54,-19 57,-16 2,2 17,0 33,-7 27,-10 39,-13 112,-23 16,-3 53,-16 84,-29 31,-14 59,-23 62,-20 3,3 19,0 35,-6 16,-7 42,-15 57,-17 16,-3 41,-7 57,-9 15,-3 39,-7 55,-9 15,-2 59,-17 97,-33 39,-16 75,-28 82,-26 7,2 22,-1 34,-8 13,-6 34,-13 48,-15 14,-2 37,-6 51,-9 14,-2 45,-7 68,-11 24,-4 46,-13 49,-20 2,-7 10,-11 17,-8 7,3 34,-4 61,-16 26,-11 50,-18 52,-16 3,3 17,0 32,-6 14,-6 44,-15 66,-19 37,-9 53,-12 110,-21 11,-2 26,-9 34,-16 7,-7 20,-11 27,-8 8,3 14,0 14,-6 0,-6 3,-9 6,-5 3,3 25,-1 47,-10 23,-8 53,-16 67,-18 14,-2 41,-7 60,-10 19,-4 43,-7 53,-7 10,1 15,-4 11,-10 -4,-7 -2,-8 5,-4 7,4 40,-3 74,-17 78,-31 130,-45 239,-63 18,-3 42,-7 53,-9 11,-1 49,-15 84,-29 36,-14 73,-26 84,-26 10,0 27,-5 38,-10 11,-6 34,-13 52,-15 17,-3 43,-7 57,-10 14,-4 39,-8 56,-10 17,-2 40,-8 50,-13 32,-18 134,-55 157,-58 12,-1 44,-7 71,-13 27,-7 51,-10 53,-7 3,2 20,-2 39,-10 19,-8 34,-12 34,-8 0,3 7,-2 16,-10 14,-14 35,-21 57,-17 4,0 7,-2 7,-7 0,-4 10,-8 23,-9 12,-1 42,-6 67,-13 54,-13 85,-19 125,-24 17,-2 62,-17 102,-34 39,-17 73,-28 76,-26 2,3 17,0 33,-7 16,-6 40,-12 54,-14 14,-2 36,-6 50,-9 14,-2 41,-7 60,-10 48,-6 71,-16 64,-27 -3,-5 1,-6 9,-4 7,3 38,-6 69,-19 31,-14 64,-25 75,-25 25,0 66,-7 95,-17 12,-4 40,-8 60,-9 20,-1 43,-7 51,-13 8,-7 17,-9 20,-5 4,3 7,0 7,-7 0,-7 3,-11 6,-7 3,3 28,-3 54,-13 26,-10 51,-16 54,-13 3,4 6,2 6,-3 0,-5 10,-10 23,-10 12,-1 37,-5 54,-8 18,-3 46,-8 63,-11 16,-2 38,-9 48,-14 11,-6 22,-7 26,-4 3,3 6,2 6,-4 0,-11 46,-28 67,-24 7,1 26,-5 43,-14 17,-9 35,-13 40,-10 5,3 18,1 29,-5 11,-5 37,-12 58,-15 21,-4 47,-7 58,-9 11,-2 48,-15 82,-29 34,-14 64,-22 68,-19 3,4 10,0 14,-7 5,-7 19,-15 32,-17 36,-4 101,-14 129,-20 14,-3 33,-5 43,-5 10,0 55,-16 100,-35 45,-20 96,-38 112,-40 32,-6 59,-10 115,-18 30,-5 175,-16 205,-17 6,0 24,3 40,6 17,3 46,7 65,10 19,2 46,7 60,10 14,3 34,8 45,10 11,3 30,7 43,10 12,3 31,7 41,9 11,3 30,10 43,17 13,8 25,14 28,14 3,0 15,6 28,13 12,7 22,10 22,6 0,-3 17,6 37,22 20,15 32,21 28,13 -5,-8 21,10 58,39 36,28 72,52 78,52 14,0 229,218 229,232 0,6 16,33 35,59 19,27 35,51 35,54 0,3 8,17 17,32 21,31 63,133 63,151 0,7 4,20 9,30 14,24 38,140 52,245 13,101 1,230 -33,352 -11,39 -24,88 -28,110 -4,22 -13,41 -19,43 -6,2 -11,14 -11,26 0,13 -10,38 -22,57 -13,19 -30,48 -38,64 -8,17 -22,37 -31,45 -8,8 -24,30 -35,49 -24,43 -202,221 -220,221 -8,0 -14,5 -14,10 0,6 -11,15 -25,20 -14,5 -25,14 -25,20 0,6 -4,8 -10,5 -5,-3 -10,-1 -10,4 0,6 -6,11 -14,11 -7,0 -29,10 -47,23 -43,29 -185,89 -222,93 -15,2 -35,8 -45,13 -15,8 -46,13 -152,26 -19,3 -40,12 -47,21 -6,9 -16,13 -22,9 -6,-3 -11,-1 -11,5 0,6 -4,9 -9,6 -5,-3 -26,1 -47,10 -22,9 -50,18 -64,20 -14,1 -41,6 -60,9 -19,4 -43,7 -53,7 -9,-1 -15,3 -12,8 3,6 0,7 -8,4 -8,-3 -40,6 -72,20 -31,14 -61,24 -65,21 -5,-3 -28,4 -53,14 -25,11 -47,17 -50,15 -2,-3 -17,0 -33,7 -16,6 -49,12 -74,14 -25,2 -70,14 -100,27 -30,13 -62,24 -70,23 -8,-1 -28,5 -43,12 -15,8 -44,16 -64,19 -19,2 -40,7 -46,11 -5,3 -29,7 -51,8 -23,2 -70,15 -106,30 -36,15 -75,28 -87,30 -11,2 -31,6 -43,10 -12,4 -34,9 -48,11 -15,3 -40,7 -57,10 -16,2 -40,4 -52,4 -12,0 -26,7 -31,16 -4,8 -18,16 -30,17 -12,1 -22,5 -22,10 0,4 -4,6 -10,2 -5,-3 -26,1 -46,10 -20,8 -39,13 -42,11 -2,-3 -16,0 -31,6 -24,10 -41,13 -108,21 -16,2 -50,13 -77,25 -27,12 -57,22 -68,22 -10,0 -35,7 -56,16 -20,9 -48,17 -62,19 -14,2 -36,6 -50,9 -14,3 -41,7 -61,10 -20,3 -57,14 -82,25 -25,11 -58,22 -74,24 -15,3 -45,11 -65,20 -20,8 -39,13 -42,10 -3,-3 -20,0 -37,8 -18,7 -49,14 -68,15 -58,3 -59,3 -75,20 -9,8 -16,13 -16,10 0,-3 -22,3 -49,14 -27,10 -51,17 -54,14 -2,-2 -17,0 -33,7 -16,6 -41,13 -56,15 -16,2 -43,7 -60,10 -18,3 -41,6 -51,7 -10,1 -21,7 -25,13 -8,12 -52,29 -66,25 -5,-1 -26,5 -46,13 -21,8 -40,13 -43,10 -3,-3 -14,-1 -25,5 -12,6 -38,13 -59,16 -21,4 -47,7 -58,9 -11,2 -48,15 -82,29 -34,14 -64,23 -67,19 -3,-3 -24,3 -46,13 -22,10 -43,15 -46,12 -4,-4 -15,-2 -25,4 -17,9 -48,15 -109,23 -14,2 -54,15 -89,30 -35,15 -65,25 -68,22 -3,-2 -17,0 -32,6 -43,17 -146,38 -189,38 -12,0 -25,7 -29,16 -3,8 -12,13 -19,10 -8,-3 -14,-1 -14,5 0,6 -4,8 -9,5 -5,-4 -29,3 -54,13 -25,11 -48,17 -51,14 -3,-3 -20,0 -37,7 -18,8 -41,15 -53,16 -12,1 -37,5 -56,8 -19,3 -42,7 -50,7 -8,1 -25,10 -38,20 -13,10 -29,16 -37,13 -7,-3 -27,2 -44,10 -16,9 -46,18 -66,21 -19,2 -40,7 -46,11 -6,3 -23,8 -37,10 -62,7 -89,14 -127,30 -22,9 -53,19 -70,21 -16,3 -38,9 -48,14 -10,6 -33,12 -53,15 -19,2 -45,9 -56,15 -11,6 -41,12 -67,14 -25,1 -72,15 -105,29 -32,15 -61,25 -63,22 -3,-2 -24,2 -46,11 -23,8 -51,16 -62,17 -11,2 -46,7 -78,11 -35,4 -61,13 -64,21 -3,8 -15,14 -27,14 -11,0 -43,7 -71,16 -100,32 -118,36 -164,41 -25,3 -53,9 -62,14 -9,4 -19,6 -22,2 -3,-3 -13,2 -22,11 -9,9 -27,16 -40,16 -13,0 -44,9 -68,19 -25,11 -48,17 -51,14 -3,-3 -19,0 -35,6 -26,11 -52,17 -106,25 -35,5 -80,18 -92,29 -7,5 -25,11 -40,12 -16,1 -46,10 -67,19 -22,9 -41,14 -44,12 -2,-3 -16,0 -31,6 -14,6 -37,12 -51,14 -67,9 -90,15 -135,34 -27,11 -60,22 -74,24 -14,2 -39,9 -56,16 -16,6 -41,13 -55,15 -14,2 -47,6 -74,9 -27,4 -81,19 -120,35 -65,27 -140,47 -158,43 -5,-1 -8,1 -8,5 0,5 -10,9 -22,9 -13,1 -39,5 -58,9 -19,3 -41,7 -47,7 -7,1 -13,5 -13,9 0,5 -7,6 -15,3 -8,-4 -15,-1 -15,6 0,6 -4,8 -10,5 -5,-3 -10,-1 -10,5 0,6 -4,9 -9,6 -5,-3 -28,0 -52,8 -89,29 -120,38 -149,42 -17,2 -43,6 -59,9 -16,2 -51,13 -76,25 -26,12 -49,19 -52,17 -2,-3 -21,2 -41,10 -20,9 -48,18 -62,20 -14,2 -38,6 -55,8 -16,3 -43,7 -60,10 -16,2 -62,17 -102,34 -39,16 -73,27 -76,25 -2,-3 -17,1 -33,7 -16,6 -38,13 -49,15 -11,1 -42,8 -70,14 -27,6 -58,11 -68,11 -9,0 -43,12 -74,25 -31,14 -72,27 -91,30 -18,2 -43,9 -54,15 -11,6 -34,13 -49,15 -16,2 -44,6 -62,9 -17,3 -42,5 -55,5 -12,0 -25,7 -28,15 -4,8 -10,12 -15,9 -5,-3 -9,-1 -9,5 0,6 -6,8 -13,5 -7,-2 -30,3 -51,11 -21,9 -40,14 -43,11 -3,-2 -21,3 -41,11 -20,9 -55,17 -77,18 -22,1 -69,14 -104,29 -35,14 -66,24 -69,21 -2,-2 -21,3 -40,11 -20,8 -52,17 -71,20 -20,3 -47,8 -61,10 -14,3 -36,7 -50,8 -14,2 -56,16 -95,32 -38,16 -74,27 -79,26 -5,-2 -21,2 -35,8 -28,11 -59,19 -106,26 -64,9 -112,22 -170,46 -33,13 -65,23 -72,21 -6,-2 -24,2 -40,10 -15,8 -66,20 -113,27 -47,7 -89,18 -95,24 -5,6 -17,11 -25,11 -8,-1 -35,8 -60,18 -25,10 -57,21 -72,23 -16,2 -40,6 -55,9 -16,3 -42,7 -59,10 -17,2 -53,14 -80,25 -27,12 -57,22 -66,23 -10,1 -18,5 -18,10 0,4 -4,6 -9,3 -5,-4 -22,-1 -38,5 -15,6 -39,12 -53,14 -14,2 -41,7 -60,10 -19,3 -45,8 -57,9 -12,2 -50,14 -85,28 -70,28 -143,49 -171,49 -9,0 -16,3 -13,7 2,4 -10,7 -27,6 -18,0 -43,4 -57,9 -14,5 -36,10 -50,12 -13,1 -26,8 -28,14 -2,6 -7,9 -12,6 -4,-3 -27,1 -51,9 -91,29 -121,38 -152,42 -53,8 -70,12 -104,22 -18,6 -33,8 -33,4 0,-4 -4,-1 -9,7 -5,7 -19,15 -32,16 -13,2 -42,10 -63,19 -22,9 -41,14 -44,12 -2,-3 -16,0 -31,5 -26,10 -63,18 -111,23 -14,1 -47,13 -74,25 -28,12 -65,24 -83,26 -19,2 -39,7 -45,11 -16,10 -91,26 -175,38 -16,2 -60,17 -100,34 -39,17 -74,28 -77,25 -3,-3 -20,0 -37,7 -32,13 -47,16 -123,23 -22,1 -41,8 -43,14 -2,6 -13,9 -23,6 -12,-3 -22,1 -26,11 -3,9 -11,13 -16,10 -5,-4 -26,0 -46,9 -39,15 -110,35 -152,41 -74,12 -91,16 -110,26 -11,6 -24,8 -29,5 -5,-3 -11,0 -13,6 -2,6 -17,13 -34,15 -16,2 -47,10 -68,19 -21,9 -40,14 -43,11 -3,-2 -17,0 -32,6 -26,10 -33,12 -101,22 -19,2 -61,16 -93,30 -32,15 -62,24 -67,21 -5,-3 -22,0 -37,8 -27,14 -68,23 -148,33 -22,3 -69,17 -104,30 -35,14 -77,27 -92,29 -16,2 -36,8 -46,13 -17,9 -51,15 -148,27 -21,3 -49,12 -62,20 -13,9 -23,13 -23,11 0,-3 -25,6 -56,20 -31,14 -59,23 -61,20 -3,-3 -17,0 -31,5 -14,5 -39,12 -56,14 -17,3 -42,7 -56,9 -14,3 -38,7 -54,9 -15,2 -32,10 -36,17 -4,7 -22,14 -39,16 -17,2 -47,10 -67,19 -21,8 -39,13 -42,11 -2,-3 -16,0 -31,6 -26,10 -69,18 -104,19 -9,0 -42,11 -72,25 -31,13 -64,24 -74,24 -10,0 -34,7 -54,15 -19,8 -37,11 -41,8 -3,-4 -6,-2 -6,3 0,5 -10,10 -22,10 -13,1 -38,5 -55,8 -18,3 -46,8 -61,10 -16,3 -53,16 -84,29 -31,14 -59,23 -62,20 -3,-3 -24,2 -48,12 -44,17 -56,20 -143,31 -27,3 -60,12 -72,20 -13,8 -23,12 -23,10 0,-3 -21,4 -47,15 -25,11 -60,22 -77,25 -17,3 -42,7 -56,10 -14,2 -34,6 -45,7 -49,8 -91,21 -110,33 -12,8 -37,16 -58,18 -20,3 -46,10 -58,17 -12,6 -34,13 -48,15 -68,8 -171,33 -217,52 -29,11 -55,18 -58,15 -3,-4 -6,-1 -6,6 0,7 -4,10 -9,7 -5,-4 -22,-1 -38,5 -15,6 -39,13 -53,15 -14,2 -45,8 -70,14 -25,6 -53,11 -63,11 -11,0 -43,11 -73,24 -29,13 -70,26 -90,29 -19,4 -45,11 -56,17 -11,6 -22,8 -25,5 -3,-2 -17,0 -32,6 -14,5 -37,11 -51,13 -67,9 -83,13 -90,25 -4,7 -13,9 -19,6 -6,-4 -11,-3 -11,1 0,5 -8,9 -17,10 -10,1 -43,9 -73,18 -30,9 -68,18 -85,20 -71,11 -120,24 -163,45 -20,10 -42,16 -48,13 -7,-2 -26,3 -43,11 -16,9 -46,18 -66,21 -19,2 -41,7 -47,11 -6,4 -30,8 -52,9 -23,2 -69,14 -103,28 -34,14 -64,22 -67,19 -3,-3 -6,0 -6,7 0,7 -5,9 -11,6 -5,-4 -22,-2 -37,4 -15,6 -39,13 -54,15 -15,3 -32,8 -38,11 -6,4 -32,8 -59,10 -26,1 -80,17 -120,34 -41,17 -76,29 -79,27 -2,-3 -16,0 -31,6 -14,6 -37,12 -51,14 -89,12 -162,31 -170,44 -5,8 -12,11 -16,8 -3,-4 -29,2 -58,13 -28,11 -62,22 -76,24 -14,2 -36,6 -50,9 -14,3 -41,7 -61,10 -19,3 -80,24 -135,47 -54,23 -108,43 -119,45 -49,7 -102,15 -125,20 -25,5 -249,12 -253,8 z"
       id="path4"
       inkscape:connector-curvature="0" />
  </g>
</svg>
