<svg xmlns="http://www.w3.org/2000/svg" xmlns:xlink="http://www.w3.org/1999/xlink" width="492" height="492"><path fill="#fff" d="M0 0h492v492H0z"/><defs><path id="a" d="M0 0h12v12H0z"/></defs><use x="24" y="24" xlink:href="#a"/><use x="36" y="24" xlink:href="#a"/><use x="48" y="24" xlink:href="#a"/><use x="60" y="24" xlink:href="#a"/><use x="72" y="24" xlink:href="#a"/><use x="84" y="24" xlink:href="#a"/><use x="96" y="24" xlink:href="#a"/><use x="120" y="24" xlink:href="#a"/><use x="132" y="24" xlink:href="#a"/><use x="144" y="24" xlink:href="#a"/><use x="168" y="24" xlink:href="#a"/><use x="180" y="24" xlink:href="#a"/><use x="216" y="24" xlink:href="#a"/><use x="240" y="24" xlink:href="#a"/><use x="264" y="24" xlink:href="#a"/><use x="276" y="24" xlink:href="#a"/><use x="336" y="24" xlink:href="#a"/><use x="348" y="24" xlink:href="#a"/><use x="384" y="24" xlink:href="#a"/><use x="396" y="24" xlink:href="#a"/><use x="408" y="24" xlink:href="#a"/><use x="420" y="24" xlink:href="#a"/><use x="432" y="24" xlink:href="#a"/><use x="444" y="24" xlink:href="#a"/><use x="456" y="24" xlink:href="#a"/><use x="24" y="36" xlink:href="#a"/><use x="96" y="36" xlink:href="#a"/><use x="132" y="36" xlink:href="#a"/><use x="144" y="36" xlink:href="#a"/><use x="168" y="36" xlink:href="#a"/><use x="180" y="36" xlink:href="#a"/><use x="192" y="36" xlink:href="#a"/><use x="216" y="36" xlink:href="#a"/><use x="228" y="36" xlink:href="#a"/><use x="252" y="36" xlink:href="#a"/><use x="300" y="36" xlink:href="#a"/><use x="312" y="36" xlink:href="#a"/><use x="348" y="36" xlink:href="#a"/><use x="360" y="36" xlink:href="#a"/><use x="384" y="36" xlink:href="#a"/><use x="456" y="36" xlink:href="#a"/><use x="24" y="48" xlink:href="#a"/><use x="48" y="48" xlink:href="#a"/><use x="60" y="48" xlink:href="#a"/><use x="72" y="48" xlink:href="#a"/><use x="96" y="48" xlink:href="#a"/><use x="168" y="48" xlink:href="#a"/><use x="180" y="48" xlink:href="#a"/><use x="216" y="48" xlink:href="#a"/><use x="228" y="48" xlink:href="#a"/><use x="240" y="48" xlink:href="#a"/><use x="252" y="48" xlink:href="#a"/><use x="288" y="48" xlink:href="#a"/><use x="300" y="48" xlink:href="#a"/><use x="348" y="48" xlink:href="#a"/><use x="360" y="48" xlink:href="#a"/><use x="384" y="48" xlink:href="#a"/><use x="408" y="48" xlink:href="#a"/><use x="420" y="48" xlink:href="#a"/><use x="432" y="48" xlink:href="#a"/><use x="456" y="48" xlink:href="#a"/><use x="24" y="60" xlink:href="#a"/><use x="48" y="60" xlink:href="#a"/><use x="60" y="60" xlink:href="#a"/><use x="72" y="60" xlink:href="#a"/><use x="96" y="60" xlink:href="#a"/><use x="120" y="60" xlink:href="#a"/><use x="156" y="60" xlink:href="#a"/><use x="180" y="60" xlink:href="#a"/><use x="264" y="60" xlink:href="#a"/><use x="276" y="60" xlink:href="#a"/><use x="288" y="60" xlink:href="#a"/><use x="336" y="60" xlink:href="#a"/><use x="348" y="60" xlink:href="#a"/><use x="360" y="60" xlink:href="#a"/><use x="384" y="60" xlink:href="#a"/><use x="408" y="60" xlink:href="#a"/><use x="420" y="60" xlink:href="#a"/><use x="432" y="60" xlink:href="#a"/><use x="456" y="60" xlink:href="#a"/><use x="24" y="72" xlink:href="#a"/><use x="48" y="72" xlink:href="#a"/><use x="60" y="72" xlink:href="#a"/><use x="72" y="72" xlink:href="#a"/><use x="96" y="72" xlink:href="#a"/><use x="132" y="72" xlink:href="#a"/><use x="156" y="72" xlink:href="#a"/><use x="168" y="72" xlink:href="#a"/><use x="180" y="72" xlink:href="#a"/><use x="228" y="72" xlink:href="#a"/><use x="252" y="72" xlink:href="#a"/><use x="264" y="72" xlink:href="#a"/><use x="288" y="72" xlink:href="#a"/><use x="300" y="72" xlink:href="#a"/><use x="312" y="72" xlink:href="#a"/><use x="324" y="72" xlink:href="#a"/><use x="348" y="72" xlink:href="#a"/><use x="384" y="72" xlink:href="#a"/><use x="408" y="72" xlink:href="#a"/><use x="420" y="72" xlink:href="#a"/><use x="432" y="72" xlink:href="#a"/><use x="456" y="72" xlink:href="#a"/><use x="24" y="84" xlink:href="#a"/><use x="96" y="84" xlink:href="#a"/><use x="132" y="84" xlink:href="#a"/><use x="168" y="84" xlink:href="#a"/><use x="204" y="84" xlink:href="#a"/><use x="240" y="84" xlink:href="#a"/><use x="252" y="84" xlink:href="#a"/><use x="264" y="84" xlink:href="#a"/><use x="288" y="84" xlink:href="#a"/><use x="300" y="84" xlink:href="#a"/><use x="324" y="84" xlink:href="#a"/><use x="348" y="84" xlink:href="#a"/><use x="360" y="84" xlink:href="#a"/><use x="384" y="84" xlink:href="#a"/><use x="456" y="84" xlink:href="#a"/><use x="24" y="96" xlink:href="#a"/><use x="36" y="96" xlink:href="#a"/><use x="48" y="96" xlink:href="#a"/><use x="60" y="96" xlink:href="#a"/><use x="72" y="96" xlink:href="#a"/><use x="84" y="96" xlink:href="#a"/><use x="96" y="96" xlink:href="#a"/><use x="120" y="96" xlink:href="#a"/><use x="144" y="96" xlink:href="#a"/><use x="168" y="96" xlink:href="#a"/><use x="192" y="96" xlink:href="#a"/><use x="216" y="96" xlink:href="#a"/><use x="240" y="96" xlink:href="#a"/><use x="264" y="96" xlink:href="#a"/><use x="288" y="96" xlink:href="#a"/><use x="312" y="96" xlink:href="#a"/><use x="336" y="96" xlink:href="#a"/><use x="360" y="96" xlink:href="#a"/><use x="384" y="96" xlink:href="#a"/><use x="396" y="96" xlink:href="#a"/><use x="408" y="96" xlink:href="#a"/><use x="420" y="96" xlink:href="#a"/><use x="432" y="96" xlink:href="#a"/><use x="444" y="96" xlink:href="#a"/><use x="456" y="96" xlink:href="#a"/><use x="156" y="108" xlink:href="#a"/><use x="204" y="108" xlink:href="#a"/><use x="228" y="108" xlink:href="#a"/><use x="240" y="108" xlink:href="#a"/><use x="252" y="108" xlink:href="#a"/><use x="264" y="108" xlink:href="#a"/><use x="300" y="108" xlink:href="#a"/><use x="312" y="108" xlink:href="#a"/><use x="324" y="108" xlink:href="#a"/><use x="360" y="108" xlink:href="#a"/><use x="48" y="120" xlink:href="#a"/><use x="72" y="120" xlink:href="#a"/><use x="84" y="120" xlink:href="#a"/><use x="96" y="120" xlink:href="#a"/><use x="120" y="120" xlink:href="#a"/><use x="156" y="120" xlink:href="#a"/><use x="168" y="120" xlink:href="#a"/><use x="180" y="120" xlink:href="#a"/><use x="192" y="120" xlink:href="#a"/><use x="240" y="120" xlink:href="#a"/><use x="264" y="120" xlink:href="#a"/><use x="276" y="120" xlink:href="#a"/><use x="300" y="120" xlink:href="#a"/><use x="348" y="120" xlink:href="#a"/><use x="372" y="120" xlink:href="#a"/><use x="420" y="120" xlink:href="#a"/><use x="456" y="120" xlink:href="#a"/><use x="36" y="132" xlink:href="#a"/><use x="60" y="132" xlink:href="#a"/><use x="72" y="132" xlink:href="#a"/><use x="132" y="132" xlink:href="#a"/><use x="144" y="132" xlink:href="#a"/><use x="192" y="132" xlink:href="#a"/><use x="204" y="132" xlink:href="#a"/><use x="216" y="132" xlink:href="#a"/><use x="228" y="132" xlink:href="#a"/><use x="252" y="132" xlink:href="#a"/><use x="264" y="132" xlink:href="#a"/><use x="276" y="132" xlink:href="#a"/><use x="324" y="132" xlink:href="#a"/><use x="360" y="132" xlink:href="#a"/><use x="384" y="132" xlink:href="#a"/><use x="396" y="132" xlink:href="#a"/><use x="420" y="132" xlink:href="#a"/><use x="432" y="132" xlink:href="#a"/><use x="444" y="132" xlink:href="#a"/><use x="456" y="132" xlink:href="#a"/><use x="24" y="144" xlink:href="#a"/><use x="84" y="144" xlink:href="#a"/><use x="96" y="144" xlink:href="#a"/><use x="108" y="144" xlink:href="#a"/><use x="120" y="144" xlink:href="#a"/><use x="168" y="144" xlink:href="#a"/><use x="180" y="144" xlink:href="#a"/><use x="204" y="144" xlink:href="#a"/><use x="252" y="144" xlink:href="#a"/><use x="264" y="144" xlink:href="#a"/><use x="288" y="144" xlink:href="#a"/><use x="300" y="144" xlink:href="#a"/><use x="312" y="144" xlink:href="#a"/><use x="324" y="144" xlink:href="#a"/><use x="384" y="144" xlink:href="#a"/><use x="396" y="144" xlink:href="#a"/><use x="408" y="144" xlink:href="#a"/><use x="456" y="144" xlink:href="#a"/><use x="24" y="156" xlink:href="#a"/><use x="36" y="156" xlink:href="#a"/><use x="72" y="156" xlink:href="#a"/><use x="84" y="156" xlink:href="#a"/><use x="108" y="156" xlink:href="#a"/><use x="144" y="156" xlink:href="#a"/><use x="156" y="156" xlink:href="#a"/><use x="264" y="156" xlink:href="#a"/><use x="288" y="156" xlink:href="#a"/><use x="324" y="156" xlink:href="#a"/><use x="336" y="156" xlink:href="#a"/><use x="348" y="156" xlink:href="#a"/><use x="372" y="156" xlink:href="#a"/><use x="396" y="156" xlink:href="#a"/><use x="408" y="156" xlink:href="#a"/><use x="420" y="156" xlink:href="#a"/><use x="444" y="156" xlink:href="#a"/><use x="456" y="156" xlink:href="#a"/><use x="24" y="168" xlink:href="#a"/><use x="36" y="168" xlink:href="#a"/><use x="48" y="168" xlink:href="#a"/><use x="60" y="168" xlink:href="#a"/><use x="96" y="168" xlink:href="#a"/><use x="108" y="168" xlink:href="#a"/><use x="120" y="168" xlink:href="#a"/><use x="132" y="168" xlink:href="#a"/><use x="168" y="168" xlink:href="#a"/><use x="180" y="168" xlink:href="#a"/><use x="228" y="168" xlink:href="#a"/><use x="240" y="168" xlink:href="#a"/><use x="264" y="168" xlink:href="#a"/><use x="288" y="168" xlink:href="#a"/><use x="300" y="168" xlink:href="#a"/><use x="312" y="168" xlink:href="#a"/><use x="324" y="168" xlink:href="#a"/><use x="348" y="168" xlink:href="#a"/><use x="384" y="168" xlink:href="#a"/><use x="396" y="168" xlink:href="#a"/><use x="408" y="168" xlink:href="#a"/><use x="420" y="168" xlink:href="#a"/><use x="456" y="168" xlink:href="#a"/><use x="24" y="180" xlink:href="#a"/><use x="36" y="180" xlink:href="#a"/><use x="48" y="180" xlink:href="#a"/><use x="60" y="180" xlink:href="#a"/><use x="84" y="180" xlink:href="#a"/><use x="108" y="180" xlink:href="#a"/><use x="156" y="180" xlink:href="#a"/><use x="192" y="180" xlink:href="#a"/><use x="204" y="180" xlink:href="#a"/><use x="216" y="180" xlink:href="#a"/><use x="228" y="180" xlink:href="#a"/><use x="240" y="180" xlink:href="#a"/><use x="288" y="180" xlink:href="#a"/><use x="360" y="180" xlink:href="#a"/><use x="384" y="180" xlink:href="#a"/><use x="420" y="180" xlink:href="#a"/><use x="432" y="180" xlink:href="#a"/><use x="444" y="180" xlink:href="#a"/><use x="456" y="180" xlink:href="#a"/><use x="24" y="192" xlink:href="#a"/><use x="48" y="192" xlink:href="#a"/><use x="96" y="192" xlink:href="#a"/><use x="108" y="192" xlink:href="#a"/><use x="144" y="192" xlink:href="#a"/><use x="156" y="192" xlink:href="#a"/><use x="168" y="192" xlink:href="#a"/><use x="192" y="192" xlink:href="#a"/><use x="216" y="192" xlink:href="#a"/><use x="228" y="192" xlink:href="#a"/><use x="252" y="192" xlink:href="#a"/><use x="276" y="192" xlink:href="#a"/><use x="288" y="192" xlink:href="#a"/><use x="324" y="192" xlink:href="#a"/><use x="384" y="192" xlink:href="#a"/><use x="396" y="192" xlink:href="#a"/><use x="432" y="192" xlink:href="#a"/><use x="444" y="192" xlink:href="#a"/><use x="456" y="192" xlink:href="#a"/><use x="24" y="204" xlink:href="#a"/><use x="48" y="204" xlink:href="#a"/><use x="72" y="204" xlink:href="#a"/><use x="84" y="204" xlink:href="#a"/><use x="132" y="204" xlink:href="#a"/><use x="144" y="204" xlink:href="#a"/><use x="168" y="204" xlink:href="#a"/><use x="192" y="204" xlink:href="#a"/><use x="204" y="204" xlink:href="#a"/><use x="240" y="204" xlink:href="#a"/><use x="252" y="204" xlink:href="#a"/><use x="264" y="204" xlink:href="#a"/><use x="276" y="204" xlink:href="#a"/><use x="288" y="204" xlink:href="#a"/><use x="300" y="204" xlink:href="#a"/><use x="324" y="204" xlink:href="#a"/><use x="336" y="204" xlink:href="#a"/><use x="348" y="204" xlink:href="#a"/><use x="360" y="204" xlink:href="#a"/><use x="396" y="204" xlink:href="#a"/><use x="408" y="204" xlink:href="#a"/><use x="444" y="204" xlink:href="#a"/><use x="48" y="216" xlink:href="#a"/><use x="60" y="216" xlink:href="#a"/><use x="96" y="216" xlink:href="#a"/><use x="108" y="216" xlink:href="#a"/><use x="168" y="216" xlink:href="#a"/><use x="180" y="216" xlink:href="#a"/><use x="192" y="216" xlink:href="#a"/><use x="252" y="216" xlink:href="#a"/><use x="276" y="216" xlink:href="#a"/><use x="288" y="216" xlink:href="#a"/><use x="300" y="216" xlink:href="#a"/><use x="312" y="216" xlink:href="#a"/><use x="324" y="216" xlink:href="#a"/><use x="348" y="216" xlink:href="#a"/><use x="360" y="216" xlink:href="#a"/><use x="372" y="216" xlink:href="#a"/><use x="384" y="216" xlink:href="#a"/><use x="396" y="216" xlink:href="#a"/><use x="420" y="216" xlink:href="#a"/><use x="36" y="228" xlink:href="#a"/><use x="48" y="228" xlink:href="#a"/><use x="72" y="228" xlink:href="#a"/><use x="108" y="228" xlink:href="#a"/><use x="120" y="228" xlink:href="#a"/><use x="144" y="228" xlink:href="#a"/><use x="168" y="228" xlink:href="#a"/><use x="204" y="228" xlink:href="#a"/><use x="216" y="228" xlink:href="#a"/><use x="228" y="228" xlink:href="#a"/><use x="240" y="228" xlink:href="#a"/><use x="264" y="228" xlink:href="#a"/><use x="300" y="228" xlink:href="#a"/><use x="312" y="228" xlink:href="#a"/><use x="324" y="228" xlink:href="#a"/><use x="360" y="228" xlink:href="#a"/><use x="384" y="228" xlink:href="#a"/><use x="420" y="228" xlink:href="#a"/><use x="432" y="228" xlink:href="#a"/><use x="444" y="228" xlink:href="#a"/><use x="456" y="228" xlink:href="#a"/><use x="24" y="240" xlink:href="#a"/><use x="48" y="240" xlink:href="#a"/><use x="72" y="240" xlink:href="#a"/><use x="96" y="240" xlink:href="#a"/><use x="132" y="240" xlink:href="#a"/><use x="144" y="240" xlink:href="#a"/><use x="168" y="240" xlink:href="#a"/><use x="228" y="240" xlink:href="#a"/><use x="252" y="240" xlink:href="#a"/><use x="276" y="240" xlink:href="#a"/><use x="288" y="240" xlink:href="#a"/><use x="324" y="240" xlink:href="#a"/><use x="360" y="240" xlink:href="#a"/><use x="384" y="240" xlink:href="#a"/><use x="420" y="240" xlink:href="#a"/><use x="432" y="240" xlink:href="#a"/><use x="444" y="240" xlink:href="#a"/><use x="456" y="240" xlink:href="#a"/><use x="24" y="252" xlink:href="#a"/><use x="36" y="252" xlink:href="#a"/><use x="48" y="252" xlink:href="#a"/><use x="60" y="252" xlink:href="#a"/><use x="72" y="252" xlink:href="#a"/><use x="108" y="252" xlink:href="#a"/><use x="132" y="252" xlink:href="#a"/><use x="144" y="252" xlink:href="#a"/><use x="156" y="252" xlink:href="#a"/><use x="204" y="252" xlink:href="#a"/><use x="216" y="252" xlink:href="#a"/><use x="228" y="252" xlink:href="#a"/><use x="300" y="252" xlink:href="#a"/><use x="312" y="252" xlink:href="#a"/><use x="324" y="252" xlink:href="#a"/><use x="360" y="252" xlink:href="#a"/><use x="408" y="252" xlink:href="#a"/><use x="456" y="252" xlink:href="#a"/><use x="24" y="264" xlink:href="#a"/><use x="36" y="264" xlink:href="#a"/><use x="48" y="264" xlink:href="#a"/><use x="60" y="264" xlink:href="#a"/><use x="72" y="264" xlink:href="#a"/><use x="84" y="264" xlink:href="#a"/><use x="96" y="264" xlink:href="#a"/><use x="168" y="264" xlink:href="#a"/><use x="216" y="264" xlink:href="#a"/><use x="228" y="264" xlink:href="#a"/><use x="252" y="264" xlink:href="#a"/><use x="276" y="264" xlink:href="#a"/><use x="300" y="264" xlink:href="#a"/><use x="348" y="264" xlink:href="#a"/><use x="360" y="264" xlink:href="#a"/><use x="372" y="264" xlink:href="#a"/><use x="384" y="264" xlink:href="#a"/><use x="396" y="264" xlink:href="#a"/><use x="36" y="276" xlink:href="#a"/><use x="84" y="276" xlink:href="#a"/><use x="108" y="276" xlink:href="#a"/><use x="132" y="276" xlink:href="#a"/><use x="156" y="276" xlink:href="#a"/><use x="168" y="276" xlink:href="#a"/><use x="204" y="276" xlink:href="#a"/><use x="240" y="276" xlink:href="#a"/><use x="252" y="276" xlink:href="#a"/><use x="276" y="276" xlink:href="#a"/><use x="288" y="276" xlink:href="#a"/><use x="312" y="276" xlink:href="#a"/><use x="384" y="276" xlink:href="#a"/><use x="432" y="276" xlink:href="#a"/><use x="36" y="288" xlink:href="#a"/><use x="60" y="288" xlink:href="#a"/><use x="72" y="288" xlink:href="#a"/><use x="84" y="288" xlink:href="#a"/><use x="96" y="288" xlink:href="#a"/><use x="108" y="288" xlink:href="#a"/><use x="120" y="288" xlink:href="#a"/><use x="144" y="288" xlink:href="#a"/><use x="168" y="288" xlink:href="#a"/><use x="180" y="288" xlink:href="#a"/><use x="192" y="288" xlink:href="#a"/><use x="204" y="288" xlink:href="#a"/><use x="228" y="288" xlink:href="#a"/><use x="240" y="288" xlink:href="#a"/><use x="252" y="288" xlink:href="#a"/><use x="288" y="288" xlink:href="#a"/><use x="312" y="288" xlink:href="#a"/><use x="336" y="288" xlink:href="#a"/><use x="408" y="288" xlink:href="#a"/><use x="420" y="288" xlink:href="#a"/><use x="444" y="288" xlink:href="#a"/><use x="456" y="288" xlink:href="#a"/><use x="36" y="300" xlink:href="#a"/><use x="48" y="300" xlink:href="#a"/><use x="60" y="300" xlink:href="#a"/><use x="72" y="300" xlink:href="#a"/><use x="168" y="300" xlink:href="#a"/><use x="192" y="300" xlink:href="#a"/><use x="204" y="300" xlink:href="#a"/><use x="216" y="300" xlink:href="#a"/><use x="228" y="300" xlink:href="#a"/><use x="240" y="300" xlink:href="#a"/><use x="252" y="300" xlink:href="#a"/><use x="264" y="300" xlink:href="#a"/><use x="276" y="300" xlink:href="#a"/><use x="288" y="300" xlink:href="#a"/><use x="300" y="300" xlink:href="#a"/><use x="324" y="300" xlink:href="#a"/><use x="360" y="300" xlink:href="#a"/><use x="420" y="300" xlink:href="#a"/><use x="24" y="312" xlink:href="#a"/><use x="36" y="312" xlink:href="#a"/><use x="60" y="312" xlink:href="#a"/><use x="96" y="312" xlink:href="#a"/><use x="108" y="312" xlink:href="#a"/><use x="120" y="312" xlink:href="#a"/><use x="156" y="312" xlink:href="#a"/><use x="204" y="312" xlink:href="#a"/><use x="216" y="312" xlink:href="#a"/><use x="228" y="312" xlink:href="#a"/><use x="252" y="312" xlink:href="#a"/><use x="288" y="312" xlink:href="#a"/><use x="300" y="312" xlink:href="#a"/><use x="312" y="312" xlink:href="#a"/><use x="324" y="312" xlink:href="#a"/><use x="348" y="312" xlink:href="#a"/><use x="372" y="312" xlink:href="#a"/><use x="384" y="312" xlink:href="#a"/><use x="396" y="312" xlink:href="#a"/><use x="408" y="312" xlink:href="#a"/><use x="420" y="312" xlink:href="#a"/><use x="444" y="312" xlink:href="#a"/><use x="456" y="312" xlink:href="#a"/><use x="48" y="324" xlink:href="#a"/><use x="144" y="324" xlink:href="#a"/><use x="156" y="324" xlink:href="#a"/><use x="168" y="324" xlink:href="#a"/><use x="216" y="324" xlink:href="#a"/><use x="228" y="324" xlink:href="#a"/><use x="240" y="324" xlink:href="#a"/><use x="252" y="324" xlink:href="#a"/><use x="276" y="324" xlink:href="#a"/><use x="288" y="324" xlink:href="#a"/><use x="300" y="324" xlink:href="#a"/><use x="312" y="324" xlink:href="#a"/><use x="324" y="324" xlink:href="#a"/><use x="420" y="324" xlink:href="#a"/><use x="456" y="324" xlink:href="#a"/><use x="24" y="336" xlink:href="#a"/><use x="60" y="336" xlink:href="#a"/><use x="84" y="336" xlink:href="#a"/><use x="96" y="336" xlink:href="#a"/><use x="156" y="336" xlink:href="#a"/><use x="168" y="336" xlink:href="#a"/><use x="180" y="336" xlink:href="#a"/><use x="216" y="336" xlink:href="#a"/><use x="240" y="336" xlink:href="#a"/><use x="252" y="336" xlink:href="#a"/><use x="288" y="336" xlink:href="#a"/><use x="300" y="336" xlink:href="#a"/><use x="312" y="336" xlink:href="#a"/><use x="360" y="336" xlink:href="#a"/><use x="432" y="336" xlink:href="#a"/><use x="444" y="336" xlink:href="#a"/><use x="456" y="336" xlink:href="#a"/><use x="36" y="348" xlink:href="#a"/><use x="48" y="348" xlink:href="#a"/><use x="60" y="348" xlink:href="#a"/><use x="108" y="348" xlink:href="#a"/><use x="120" y="348" xlink:href="#a"/><use x="144" y="348" xlink:href="#a"/><use x="168" y="348" xlink:href="#a"/><use x="192" y="348" xlink:href="#a"/><use x="216" y="348" xlink:href="#a"/><use x="228" y="348" xlink:href="#a"/><use x="252" y="348" xlink:href="#a"/><use x="312" y="348" xlink:href="#a"/><use x="324" y="348" xlink:href="#a"/><use x="336" y="348" xlink:href="#a"/><use x="372" y="348" xlink:href="#a"/><use x="384" y="348" xlink:href="#a"/><use x="396" y="348" xlink:href="#a"/><use x="456" y="348" xlink:href="#a"/><use x="24" y="360" xlink:href="#a"/><use x="60" y="360" xlink:href="#a"/><use x="96" y="360" xlink:href="#a"/><use x="108" y="360" xlink:href="#a"/><use x="144" y="360" xlink:href="#a"/><use x="156" y="360" xlink:href="#a"/><use x="168" y="360" xlink:href="#a"/><use x="180" y="360" xlink:href="#a"/><use x="204" y="360" xlink:href="#a"/><use x="216" y="360" xlink:href="#a"/><use x="252" y="360" xlink:href="#a"/><use x="264" y="360" xlink:href="#a"/><use x="300" y="360" xlink:href="#a"/><use x="324" y="360" xlink:href="#a"/><use x="360" y="360" xlink:href="#a"/><use x="372" y="360" xlink:href="#a"/><use x="384" y="360" xlink:href="#a"/><use x="396" y="360" xlink:href="#a"/><use x="408" y="360" xlink:href="#a"/><use x="420" y="360" xlink:href="#a"/><use x="444" y="360" xlink:href="#a"/><use x="120" y="372" xlink:href="#a"/><use x="132" y="372" xlink:href="#a"/><use x="144" y="372" xlink:href="#a"/><use x="156" y="372" xlink:href="#a"/><use x="168" y="372" xlink:href="#a"/><use x="180" y="372" xlink:href="#a"/><use x="192" y="372" xlink:href="#a"/><use x="228" y="372" xlink:href="#a"/><use x="264" y="372" xlink:href="#a"/><use x="276" y="372" xlink:href="#a"/><use x="288" y="372" xlink:href="#a"/><use x="348" y="372" xlink:href="#a"/><use x="360" y="372" xlink:href="#a"/><use x="408" y="372" xlink:href="#a"/><use x="456" y="372" xlink:href="#a"/><use x="24" y="384" xlink:href="#a"/><use x="36" y="384" xlink:href="#a"/><use x="48" y="384" xlink:href="#a"/><use x="60" y="384" xlink:href="#a"/><use x="72" y="384" xlink:href="#a"/><use x="84" y="384" xlink:href="#a"/><use x="96" y="384" xlink:href="#a"/><use x="132" y="384" xlink:href="#a"/><use x="180" y="384" xlink:href="#a"/><use x="216" y="384" xlink:href="#a"/><use x="240" y="384" xlink:href="#a"/><use x="252" y="384" xlink:href="#a"/><use x="360" y="384" xlink:href="#a"/><use x="384" y="384" xlink:href="#a"/><use x="408" y="384" xlink:href="#a"/><use x="432" y="384" xlink:href="#a"/><use x="444" y="384" xlink:href="#a"/><use x="456" y="384" xlink:href="#a"/><use x="24" y="396" xlink:href="#a"/><use x="96" y="396" xlink:href="#a"/><use x="120" y="396" xlink:href="#a"/><use x="144" y="396" xlink:href="#a"/><use x="156" y="396" xlink:href="#a"/><use x="168" y="396" xlink:href="#a"/><use x="180" y="396" xlink:href="#a"/><use x="204" y="396" xlink:href="#a"/><use x="240" y="396" xlink:href="#a"/><use x="252" y="396" xlink:href="#a"/><use x="276" y="396" xlink:href="#a"/><use x="324" y="396" xlink:href="#a"/><use x="336" y="396" xlink:href="#a"/><use x="360" y="396" xlink:href="#a"/><use x="408" y="396" xlink:href="#a"/><use x="24" y="408" xlink:href="#a"/><use x="48" y="408" xlink:href="#a"/><use x="60" y="408" xlink:href="#a"/><use x="72" y="408" xlink:href="#a"/><use x="96" y="408" xlink:href="#a"/><use x="120" y="408" xlink:href="#a"/><use x="132" y="408" xlink:href="#a"/><use x="144" y="408" xlink:href="#a"/><use x="180" y="408" xlink:href="#a"/><use x="192" y="408" xlink:href="#a"/><use x="204" y="408" xlink:href="#a"/><use x="216" y="408" xlink:href="#a"/><use x="228" y="408" xlink:href="#a"/><use x="252" y="408" xlink:href="#a"/><use x="264" y="408" xlink:href="#a"/><use x="312" y="408" xlink:href="#a"/><use x="324" y="408" xlink:href="#a"/><use x="336" y="408" xlink:href="#a"/><use x="360" y="408" xlink:href="#a"/><use x="372" y="408" xlink:href="#a"/><use x="384" y="408" xlink:href="#a"/><use x="396" y="408" xlink:href="#a"/><use x="408" y="408" xlink:href="#a"/><use x="420" y="408" xlink:href="#a"/><use x="24" y="420" xlink:href="#a"/><use x="48" y="420" xlink:href="#a"/><use x="60" y="420" xlink:href="#a"/><use x="72" y="420" xlink:href="#a"/><use x="96" y="420" xlink:href="#a"/><use x="144" y="420" xlink:href="#a"/><use x="156" y="420" xlink:href="#a"/><use x="168" y="420" xlink:href="#a"/><use x="228" y="420" xlink:href="#a"/><use x="240" y="420" xlink:href="#a"/><use x="252" y="420" xlink:href="#a"/><use x="264" y="420" xlink:href="#a"/><use x="276" y="420" xlink:href="#a"/><use x="300" y="420" xlink:href="#a"/><use x="324" y="420" xlink:href="#a"/><use x="372" y="420" xlink:href="#a"/><use x="396" y="420" xlink:href="#a"/><use x="408" y="420" xlink:href="#a"/><use x="432" y="420" xlink:href="#a"/><use x="444" y="420" xlink:href="#a"/><use x="456" y="420" xlink:href="#a"/><use x="24" y="432" xlink:href="#a"/><use x="48" y="432" xlink:href="#a"/><use x="60" y="432" xlink:href="#a"/><use x="72" y="432" xlink:href="#a"/><use x="96" y="432" xlink:href="#a"/><use x="120" y="432" xlink:href="#a"/><use x="360" y="432" xlink:href="#a"/><use x="396" y="432" xlink:href="#a"/><use x="408" y="432" xlink:href="#a"/><use x="456" y="432" xlink:href="#a"/><use x="24" y="444" xlink:href="#a"/><use x="96" y="444" xlink:href="#a"/><use x="132" y="444" xlink:href="#a"/><use x="144" y="444" xlink:href="#a"/><use x="156" y="444" xlink:href="#a"/><use x="216" y="444" xlink:href="#a"/><use x="240" y="444" xlink:href="#a"/><use x="252" y="444" xlink:href="#a"/><use x="264" y="444" xlink:href="#a"/><use x="276" y="444" xlink:href="#a"/><use x="324" y="444" xlink:href="#a"/><use x="336" y="444" xlink:href="#a"/><use x="348" y="444" xlink:href="#a"/><use x="360" y="444" xlink:href="#a"/><use x="372" y="444" xlink:href="#a"/><use x="420" y="444" xlink:href="#a"/><use x="444" y="444" xlink:href="#a"/><use x="24" y="456" xlink:href="#a"/><use x="36" y="456" xlink:href="#a"/><use x="48" y="456" xlink:href="#a"/><use x="60" y="456" xlink:href="#a"/><use x="72" y="456" xlink:href="#a"/><use x="84" y="456" xlink:href="#a"/><use x="96" y="456" xlink:href="#a"/><use x="132" y="456" xlink:href="#a"/><use x="144" y="456" xlink:href="#a"/><use x="180" y="456" xlink:href="#a"/><use x="192" y="456" xlink:href="#a"/><use x="204" y="456" xlink:href="#a"/><use x="228" y="456" xlink:href="#a"/><use x="264" y="456" xlink:href="#a"/><use x="276" y="456" xlink:href="#a"/><use x="300" y="456" xlink:href="#a"/><use x="312" y="456" xlink:href="#a"/><use x="360" y="456" xlink:href="#a"/><use x="372" y="456" xlink:href="#a"/><use x="384" y="456" xlink:href="#a"/><use x="444" y="456" xlink:href="#a"/><use x="456" y="456" xlink:href="#a"/></svg>